# File produced by Open Asset Import Library (http://www.assimp.sf.net)
# (assimp v3.1.187496374)

mtllib PumpBarrel.obj.mtl

# 28 vertex positions
v  1 11 2
v  1 38 3
v  1 38 2
v  1 11 3
v  2 12 3
v  2 38 3
v  2 11 3
v  2 38 2
v  2 12 2
v  3 38 1
v  3 38 2
v  2 38 1
v  2 38 4
v  3 38 3
v  3 38 4
v  4 38 2
v  4 38 3
v  2 11 2
v  2 11 1
v  3 11 2
v  3 11 1
v  3 11 3
v  4 11 3
v  4 11 2
v  3 11 4
v  2 11 4
v  3 12 2
v  3 12 3

# 0 UV coordinates

# 6 vertex normals
vn -1 0 0
vn 0 0 1
vn 1 0 0
vn 0 1 0
vn 0 0 -1
vn 0 -1 0

# Mesh 'OpenSCAD_Model' with 60 faces
g OpenSCAD_Model
usemtl DefaultMaterial
f  1//1 2//1 3//1
f  2//1 1//1 4//1
f  2//2 5//2 6//2
f  4//2 5//2 2//2
f  5//2 4//2 7//2
f  5//3 8//3 6//3
f  8//3 5//3 9//3
f  8//4 2//4 6//4
f  2//4 8//4 3//4
f  10//4 8//4 11//4
f  8//4 10//4 12//4
f  13//4 14//4 6//4
f  14//4 13//4 15//4
f  16//4 14//4 17//4
f  14//4 16//4 11//4
f  1//5 9//5 18//5
f  3//5 9//5 1//5
f  9//5 3//5 8//5
f  19//6 20//6 18//6
f  20//6 19//6 21//6
f  20//6 22//6 18//6
f  22//6 20//6 23//6
f  23//6 20//6 24//6
f  18//6 7//6 4//6
f  7//6 18//6 22//6
f  18//6 4//6 1//6
f  25//6 7//6 22//6
f  7//6 25//6 26//6
f  12//1 9//1 8//1
f  19//1 9//1 12//1
f  9//1 19//1 18//1
f  8//2 27//2 11//2
f  27//2 8//2 9//2
f  27//3 10//3 11//3
f  21//3 27//3 20//3
f  27//3 21//3 10//3
f  19//5 10//5 21//5
f  10//5 19//5 12//5
f  5//1 13//1 6//1
f  26//1 5//1 7//1
f  5//1 26//1 13//1
f  13//2 25//2 15//2
f  25//2 13//2 26//2
f  15//3 28//3 14//3
f  25//3 28//3 15//3
f  28//3 25//3 22//3
f  5//5 14//5 28//5
f  14//5 5//5 6//5
f  27//1 14//1 11//1
f  14//1 27//1 28//1
f  28//2 17//2 14//2
f  17//2 28//2 23//2
f  23//2 28//2 22//2
f  23//3 16//3 17//3
f  16//3 23//3 24//3
f  27//5 24//5 20//5
f  24//5 27//5 16//5
f  16//5 27//5 11//5
f  27//4 5//4 28//4
f  5//4 27//4 9//4

