# File produced by Open Asset Import Library (http://www.assimp.sf.net)
# (assimp v3.1.187496374)

mtllib PumpHandle.obj.mtl

# 86 vertex positions
v  1 6 -2
v  1 5 -2
v  1 6 0
v  1 5 2
v  1 4 -5
v  1 5 -5
v  1 4 -2
v  1 7 2
v  1 10 1
v  1 14 0
v  1 8 1
v  1 8 2
v  1 7 3
v  1 11 3
v  1 10 2
v  1 11 2
v  1 14 1
v  1 15 2
v  1 15 1
v  3 14 1
v  4 15 1
v  4 14 1
v  3 15 1
v  2 14 1
v  3 11 1
v  2 11 1
v  2 15 1
v  4 11 3
v  4 7 3
v  4 11 2
v  4 7 2
v  4 15 2
v  4 14 0
v  4 6 0
v  4 5 2
v  4 5 -2
v  4 6 -2
v  4 4 -2
v  4 5 -5
v  4 4 -5
v  2 6 0
v  2 9 0
v  3 9 0
v  3 6 0
v  2 10 2
v  2 10 1
v  2 8 2
v  2 11 2
v  2 15 2
v  2 8 1
v  3 15 2
v  3 11 2
v  2 11 3
v  2 9 3
v  3 9 3
v  3 11 3
v  2 11 4
v  3 11 4
v  2 5 1
v  2 5 -2
v  3 5 1
v  3 5 -2
v  2 9 4
v  3 9 4
v  2 4 -2
v  3 3 -2
v  3 4 -2
v  2 3 -2
v  3 6 -2
v  2 6 -2
v  3 7 -2
v  2 7 -2
v  2 5 -5
v  2 4 -5
v  3 5 -5
v  3 6 -5
v  2 6 -5
v  3 4 -5
v  3 3 -5
v  2 3 -5
v  3 4 1
v  2 4 1
v  2 7 -1
v  2 9 -1
v  3 7 -1
v  3 9 -1

# 0 UV coordinates

# 6 vertex normals
vn -1 0 0
vn 0 0 -1
vn 0 0 1
vn 1 0 0
vn 0 -1 0
vn 0 1 0

# Mesh 'OpenSCAD_Model' with 172 faces
g OpenSCAD_Model
usemtl DefaultMaterial
f  1//1 2//1 3//1
f  4//1 3//1 2//1
f  5//1 2//1 6//1
f  2//1 5//1 7//1
f  3//1 4//1 8//1
f  3//1 9//1 10//1
f  9//1 3//1 11//1
f  3//1 8//1 11//1
f  11//1 8//1 12//1
f  13//1 12//1 8//1
f  12//1 14//1 15//1
f  12//1 13//1 14//1
f  16//1 15//1 14//1
f  15//1 16//1 9//1
f  10//1 9//1 16//1
f  10//1 16//1 17//1
f  18//1 17//1 16//1
f  17//1 18//1 19//1
f  20//2 21//2 22//2
f  21//2 20//2 23//2
f  24//3 25//3 20//3
f  25//3 24//3 26//3
f  17//2 27//2 24//2
f  27//2 17//2 19//2
f  28//4 29//4 30//4
f  31//4 30//4 29//4
f  30//4 22//4 32//4
f  30//4 33//4 22//4
f  34//4 30//4 31//4
f  30//4 34//4 33//4
f  35//4 34//4 31//4
f  36//4 34//4 35//4
f  34//4 36//4 37//4
f  38//4 39//4 36//4
f  39//4 38//4 40//4
f  32//4 22//4 21//4
f  41//2 3//2 42//2
f  10//2 42//2 3//2
f  42//2 33//2 43//2
f  42//2 10//2 33//2
f  34//2 43//2 33//2
f  43//2 34//2 44//2
f  9//5 45//5 15//5
f  45//5 9//5 46//5
f  33//6 20//6 22//6
f  20//6 33//6 24//6
f  10//6 24//6 33//6
f  24//6 10//6 17//6
f  8//3 35//3 31//3
f  35//3 8//3 4//3
f  12//2 45//2 47//2
f  45//2 12//2 15//2
f  18//3 48//3 49//3
f  48//3 18//3 16//3
f  49//4 24//4 27//4
f  48//4 24//4 49//4
f  24//4 48//4 26//4
f  50//1 45//1 46//1
f  45//1 50//1 47//1
f  27//6 18//6 49//6
f  18//6 27//6 19//6
f  20//1 51//1 23//1
f  52//1 20//1 25//1
f  20//1 52//1 51//1
f  51//3 30//3 32//3
f  30//3 51//3 52//3
f  21//6 51//6 32//6
f  51//6 21//6 23//6
f  53//3 14//3 54//3
f  13//3 54//3 14//3
f  54//3 29//3 55//3
f  54//3 13//3 29//3
f  28//3 55//3 29//3
f  55//3 28//3 56//3
f  25//6 48//6 52//6
f  48//6 25//6 26//6
f  48//6 53//6 52//6
f  53//6 48//6 14//6
f  14//6 48//6 16//6
f  52//6 56//6 28//6
f  56//6 52//6 53//6
f  52//6 28//6 30//6
f  57//6 56//6 53//6
f  56//6 57//6 58//6
f  8//5 29//5 13//5
f  29//5 8//5 31//5
f  9//3 50//3 46//3
f  50//3 9//3 11//3
f  50//6 12//6 47//6
f  12//6 50//6 11//6
f  4//5 59//5 35//5
f  2//5 59//5 4//5
f  59//5 2//5 60//5
f  61//5 35//5 59//5
f  61//5 36//5 35//5
f  36//5 61//5 62//5
f  54//1 57//1 53//1
f  57//1 54//1 63//1
f  57//3 64//3 58//3
f  64//3 57//3 63//3
f  64//4 56//4 58//4
f  56//4 64//4 55//4
f  54//5 64//5 63//5
f  64//5 54//5 55//5
f  65//3 66//3 67//3
f  66//3 65//3 68//3
f  2//3 65//3 60//3
f  65//3 2//3 7//3
f  38//3 62//3 67//3
f  62//3 38//3 36//3
f  62//2 37//2 36//2
f  37//2 62//2 69//2
f  70//2 71//2 69//2
f  2//2 70//2 60//2
f  70//2 2//2 1//2
f  71//2 70//2 72//2
f  5//2 73//2 74//2
f  73//2 5//2 6//2
f  73//2 75//2 74//2
f  75//2 73//2 76//2
f  76//2 73//2 77//2
f  74//2 78//2 79//2
f  78//2 74//2 75//2
f  74//2 79//2 80//2
f  39//2 78//2 75//2
f  78//2 39//2 40//2
f  78//5 38//5 67//5
f  38//5 78//5 40//5
f  81//5 65//5 67//5
f  65//5 81//5 82//5
f  5//5 65//5 7//5
f  65//5 5//5 74//5
f  73//6 2//6 60//6
f  2//6 73//6 6//6
f  39//6 62//6 36//6
f  62//6 39//6 75//6
f  80//1 65//1 74//1
f  65//1 80//1 68//1
f  65//1 59//1 60//1
f  59//1 65//1 82//1
f  70//1 73//1 60//1
f  73//1 70//1 77//1
f  72//1 70//1 83//1
f  41//1 83//1 70//1
f  83//1 42//1 84//1
f  83//1 41//1 42//1
f  66//4 78//4 67//4
f  78//4 66//4 79//4
f  62//4 81//4 67//4
f  62//4 76//4 69//4
f  76//4 62//4 75//4
f  81//4 62//4 61//4
f  69//4 85//4 44//4
f  85//4 69//4 71//4
f  43//4 85//4 86//4
f  44//4 85//4 43//4
f  80//5 66//5 68//5
f  66//5 80//5 79//5
f  76//6 70//6 69//6
f  70//6 76//6 77//6
f  70//6 3//6 41//6
f  3//6 70//6 1//6
f  44//6 37//6 69//6
f  37//6 44//6 34//6
f  59//3 81//3 61//3
f  81//3 59//3 82//3
f  71//6 83//6 85//6
f  83//6 71//6 72//6
f  83//2 86//2 85//2
f  86//2 83//2 84//2
f  86//6 42//6 43//6
f  42//6 86//6 84//6

