# File produced by Open Asset Import Library (http://www.assimp.sf.net)
# (assimp v3.1.187496374)

mtllib ARBase.obj.mtl

# 120 vertex positions
v  1 2 2
v  1 22 3
v  1 22 2
v  1 2 3
v  1 0 4
v  1 30 5
v  1 30 4
v  1 0 5
v  1 0 0
v  1 30 1
v  1 30 0
v  1 0 1
v  4 0 5
v  4 30 5
v  4 30 4
v  4 0 4
v  4 0 1
v  4 30 0
v  4 30 1
v  4 0 0
v  5 0 4
v  5 0 1
v  0 0 4
v  0 0 1
v  0 30 4
v  0 30 1
v  5 30 4
v  5 30 1
v  0 22 2
v  0 2 2
v  0 22 3
v  0 2 3
v  1 -7 -9
v  1 -6 -5
v  1 -6 -9
v  1 -7 -5
v  1 -5 -1
v  1 -5 -5
v  1 -6 -1
v  2 -7 -5
v  2 -6 -5
v  3 -8 -5
v  3 -7 -5
v  2 -8 -5
v  4 -7 -5
v  3 -6 -5
v  4 -6 -5
v  2 -5 -5
v  3 -4 -5
v  3 -5 -5
v  2 -4 -5
v  4 -5 -5
v  4 -6 -9
v  4 -7 -9
v  4 -6 -1
v  4 -5 -1
v  2 -6 -9
v  3 -6 -9
v  2 -7 -9
v  3 -5 -9
v  2 -5 -9
v  3 -7 -9
v  3 -8 -9
v  2 -8 -9
v  3 -7 -1
v  2 -7 -1
v  2 -6 -1
v  2 -4 -1
v  2 -5 -1
v  3 -6 -1
v  3 -5 -1
v  3 -4 -1
v  1 -21 -1
v  1 -20 2
v  1 -20 -2
v  1 -20 3
v  1 -21 -2
v  1 -21 6
v  1 -22 -1
v  1 -10 3
v  1 -10 2
v  1 -20 7
v  1 -21 7
v  1 -22 6
v  1 -22 9
v  1 -21 9
v  1 -22 -4
v  1 -21 -4
v  4 -21 7
v  4 -20 7
v  4 -21 6
v  4 -20 3
v  4 -20 2
v  4 -21 -1
v  4 -22 6
v  4 -10 2
v  4 -10 3
v  4 -20 -2
v  4 -21 -2
v  4 -22 -1
v  4 -22 -4
v  4 -21 -4
v  4 -22 9
v  4 -21 9
v  3 -20 4
v  3 -20 3
v  2 -20 4
v  2 -20 3
v  3 -20 1
v  3 -20 2
v  2 -20 1
v  2 -20 2
v  2 -10 3
v  3 -10 3
v  3 -10 1
v  2 -10 2
v  3 -10 2
v  2 -10 1
v  2 -10 4
v  3 -10 4

# 0 UV coordinates

# 6 vertex normals
vn -1 0 0
vn 0 0 1
vn 1 0 0
vn 0 0 -1
vn 0 -1 0
vn 0 1 0

# Mesh 'OpenSCAD_Model' with 232 faces
g OpenSCAD_Model
usemtl DefaultMaterial
f  1//1 2//1 3//1
f  2//1 1//1 4//1
f  5//1 6//1 7//1
f  6//1 5//1 8//1
f  9//1 10//1 11//1
f  10//1 9//1 12//1
f  6//2 13//2 14//2
f  13//2 6//2 8//2
f  13//3 15//3 14//3
f  15//3 13//3 16//3
f  17//3 18//3 19//3
f  18//3 17//3 20//3
f  9//4 18//4 20//4
f  18//4 9//4 11//4
f  9//5 17//5 12//5
f  17//5 9//5 20//5
f  17//5 16//5 12//5
f  16//5 17//5 21//5
f  21//5 17//5 22//5
f  12//5 5//5 23//5
f  5//5 12//5 16//5
f  12//5 23//5 24//5
f  13//5 5//5 16//5
f  5//5 13//5 8//5
f  18//6 10//6 19//6
f  10//6 18//6 11//6
f  10//6 7//6 19//6
f  7//6 10//6 25//6
f  25//6 10//6 26//6
f  19//6 15//6 27//6
f  15//6 19//6 7//6
f  19//6 27//6 28//6
f  6//6 15//6 7//6
f  15//6 6//6 14//6
f  26//1 29//1 25//1
f  24//1 29//1 26//1
f  29//1 24//1 30//1
f  31//1 25//1 29//1
f  31//1 23//1 25//1
f  23//1 31//1 32//1
f  23//1 32//1 24//1
f  30//1 24//1 32//1
f  29//2 1//2 3//2
f  1//2 29//2 30//2
f  24//4 10//4 12//4
f  10//4 24//4 26//4
f  25//2 5//2 7//2
f  5//2 25//2 23//2
f  32//4 2//4 4//4
f  2//4 32//4 31//4
f  29//5 2//5 31//5
f  2//5 29//5 3//5
f  1//6 32//6 4//6
f  32//6 1//6 30//6
f  15//2 21//2 27//2
f  21//2 15//2 16//2
f  21//3 28//3 27//3
f  28//3 21//3 22//3
f  17//4 28//4 22//4
f  28//4 17//4 19//4
f  33//1 34//1 35//1
f  34//1 33//1 36//1
f  34//1 37//1 38//1
f  37//1 34//1 39//1
f  34//2 40//2 41//2
f  40//2 34//2 36//2
f  40//2 42//2 43//2
f  42//2 40//2 44//2
f  45//2 46//2 43//2
f  46//2 45//2 47//2
f  34//4 48//4 41//4
f  48//4 34//4 38//4
f  48//4 49//4 50//4
f  49//4 48//4 51//4
f  52//4 46//4 50//4
f  46//4 52//4 47//4
f  45//3 53//3 47//3
f  53//3 45//3 54//3
f  52//3 55//3 47//3
f  55//3 52//3 56//3
f  57//6 34//6 41//6
f  34//6 57//6 35//6
f  53//6 46//6 47//6
f  46//6 53//6 58//6
f  33//4 57//4 59//4
f  57//4 33//4 35//4
f  57//4 58//4 59//4
f  58//4 57//4 60//4
f  60//4 57//4 61//4
f  59//4 62//4 63//4
f  62//4 59//4 58//4
f  59//4 63//4 64//4
f  53//4 62//4 58//4
f  62//4 53//4 54//4
f  62//5 45//5 43//5
f  45//5 62//5 54//5
f  65//5 40//5 43//5
f  40//5 65//5 66//5
f  33//5 40//5 36//5
f  40//5 33//5 59//5
f  64//1 40//1 59//1
f  40//1 64//1 44//1
f  40//1 67//1 41//1
f  67//1 40//1 66//1
f  48//1 57//1 41//1
f  57//1 48//1 61//1
f  48//1 68//1 51//1
f  68//1 48//1 69//1
f  42//3 62//3 43//3
f  62//3 42//3 63//3
f  46//3 65//3 43//3
f  46//3 60//3 50//3
f  60//3 46//3 58//3
f  65//3 46//3 70//3
f  49//3 71//3 50//3
f  71//3 49//3 72//3
f  64//5 42//5 44//5
f  42//5 64//5 63//5
f  60//6 48//6 50//6
f  48//6 60//6 61//6
f  48//6 37//6 69//6
f  37//6 48//6 38//6
f  71//6 52//6 50//6
f  52//6 71//6 56//6
f  37//2 67//2 69//2
f  67//2 37//2 39//2
f  67//2 70//2 69//2
f  70//2 67//2 65//2
f  65//2 67//2 66//2
f  69//2 71//2 72//2
f  71//2 69//2 70//2
f  69//2 72//2 68//2
f  55//2 71//2 70//2
f  71//2 55//2 56//2
f  34//5 67//5 39//5
f  67//5 34//5 41//5
f  46//5 55//5 70//5
f  55//5 46//5 47//5
f  49//6 68//6 72//6
f  68//6 49//6 51//6
f  73//1 74//1 75//1
f  74//1 73//1 76//1
f  73//1 75//1 77//1
f  78//1 76//1 73//1
f  77//1 79//1 73//1
f  74//1 80//1 81//1
f  80//1 74//1 76//1
f  76//1 78//1 82//1
f  78//1 83//1 82//1
f  84//1 83//1 78//1
f  85//1 83//1 84//1
f  83//1 85//1 86//1
f  79//1 77//1 87//1
f  87//1 77//1 88//1
f  82//2 89//2 90//2
f  89//2 82//2 83//2
f  91//3 92//3 90//3
f  92//3 91//3 93//3
f  91//3 90//3 89//3
f  94//3 93//3 91//3
f  89//3 95//3 91//3
f  92//3 96//3 97//3
f  96//3 92//3 93//3
f  93//3 94//3 98//3
f  94//3 99//3 98//3
f  100//3 99//3 94//3
f  101//3 99//3 100//3
f  99//3 101//3 102//3
f  95//3 89//3 103//3
f  103//3 89//3 104//3
f  90//6 105//6 82//6
f  92//6 105//6 90//6
f  105//6 92//6 106//6
f  107//6 82//6 105//6
f  107//6 76//6 82//6
f  76//6 107//6 108//6
f  93//6 109//6 110//6
f  98//6 109//6 93//6
f  109//6 98//6 111//6
f  75//6 111//6 98//6
f  111//6 74//6 112//6
f  111//6 75//6 74//6
f  77//4 98//4 99//4
f  98//4 77//4 75//4
f  73//5 91//5 78//5
f  91//5 73//5 94//5
f  102//6 77//6 99//6
f  77//6 102//6 88//6
f  89//6 86//6 104//6
f  86//6 89//6 83//6
f  86//2 103//2 104//2
f  103//2 86//2 85//2
f  84//4 91//4 95//4
f  91//4 84//4 78//4
f  84//5 103//5 85//5
f  103//5 84//5 95//5
f  73//2 100//2 94//2
f  100//2 73//2 79//2
f  87//4 102//4 101//4
f  102//4 87//4 88//4
f  87//5 100//5 79//5
f  100//5 87//5 101//5
f  80//2 108//2 113//2
f  108//2 80//2 76//2
f  114//2 92//2 97//2
f  92//2 114//2 106//2
f  115//6 116//6 117//6
f  116//6 115//6 118//6
f  116//6 113//6 117//6
f  113//6 116//6 80//6
f  80//6 116//6 81//6
f  117//6 114//6 97//6
f  114//6 117//6 113//6
f  117//6 97//6 96//6
f  119//6 114//6 113//6
f  114//6 119//6 120//6
f  74//4 116//4 112//4
f  116//4 74//4 81//4
f  110//4 96//4 93//4
f  96//4 110//4 117//4
f  108//1 119//1 113//1
f  119//1 108//1 107//1
f  111//1 116//1 118//1
f  116//1 111//1 112//1
f  119//2 105//2 120//2
f  105//2 119//2 107//2
f  105//3 114//3 120//3
f  114//3 105//3 106//3
f  110//3 115//3 117//3
f  115//3 110//3 109//3
f  111//4 115//4 109//4
f  115//4 111//4 118//4

