# File produced by Open Asset Import Library (http://www.assimp.sf.net)
# (assimp v3.1.187496374)

mtllib ARClip.obj.mtl

# 24 vertex positions
v  2 15 -10
v  2 14 -6
v  2 15 -6
v  2 10 -10
v  2 13 -3
v  2 14 -3
v  2 10 -6
v  2 9 -3
v  2 13 0
v  2 9 -6
v  2 8 0
v  2 8 -3
v  3 9 -3
v  3 13 -3
v  3 13 0
v  3 10 -6
v  3 8 0
v  3 8 -3
v  3 9 -6
v  3 14 -3
v  3 14 -6
v  3 10 -10
v  3 15 -10
v  3 15 -6

# 0 UV coordinates

# 6 vertex normals
vn -1 0 0
vn 1 0 0
vn 0 -1 0
vn 0 0 1
vn 0 1 0
vn 0 0 -1

# Mesh 'OpenSCAD_Model' with 44 faces
g OpenSCAD_Model
usemtl DefaultMaterial
f  1//1 2//1 3//1
f  4//1 2//1 1//1
f  2//1 5//1 6//1
f  2//1 4//1 7//1
f  2//1 7//1 5//1
f  8//1 5//1 7//1
f  5//1 8//1 9//1
f  8//1 7//1 10//1
f  11//1 8//1 12//1
f  8//1 11//1 9//1
f  13//2 14//2 15//2
f  14//2 13//2 16//2
f  17//2 13//2 15//2
f  13//2 17//2 18//2
f  16//2 13//2 19//2
f  20//2 14//2 21//2
f  16//2 21//2 14//2
f  22//2 21//2 16//2
f  21//2 23//2 24//2
f  21//2 22//2 23//2
f  4//3 16//3 7//3
f  16//3 4//3 22//3
f  3//4 21//4 24//4
f  21//4 3//4 2//4
f  23//5 3//5 24//5
f  3//5 23//5 1//5
f  4//6 23//6 22//6
f  23//6 4//6 1//6
f  10//6 16//6 19//6
f  16//6 10//6 7//6
f  10//3 13//3 8//3
f  13//3 10//3 19//3
f  6//4 14//4 20//4
f  14//4 6//4 5//4
f  21//5 6//5 20//5
f  6//5 21//5 2//5
f  9//4 17//4 15//4
f  17//4 9//4 11//4
f  12//6 13//6 18//6
f  13//6 12//6 8//6
f  12//3 17//3 11//3
f  17//3 12//3 18//3
f  14//5 9//5 15//5
f  9//5 14//5 5//5

