# File produced by Open Asset Import Library (http://www.assimp.sf.net)
# (assimp v3.1.187496374)

mtllib ARDetail.obj.mtl

# 234 vertex positions
v  2 35 1
v  2 36 2
v  2 36 1
v  2 35 2
v  3 35 2
v  3 36 2
v  3 36 1
v  3 35 1
v  2 30 1
v  3 13 1
v  3 30 1
v  2 13 1
v  3 33 1
v  4 30 1
v  4 35 1
v  2 33 1
v  1 35 1
v  1 30 1
v  4 35 3
v  3 35 4
v  4 35 4
v  3 35 3
v  2 35 3
v  4 35 2
v  1 35 4
v  2 35 4
v  1 35 3
v  1 35 2
v  1 36 3
v  2 36 3
v  1 36 2
v  2 36 4
v  3 36 3
v  3 36 4
v  4 36 2
v  4 36 3
v  4 31 4
v  1 31 4
v  1 30 5
v  1 31 5
v  4 31 5
v  4 30 5
v  2 30 5
v  3 30 5
v  3 30 7
v  2 30 7
v  1 -10 5
v  1 0 6
v  1 0 5
v  1 -10 6
v  1 1 6
v  1 1 5
v  1 1 8
v  1 0 8
v  1 4 6
v  1 4 5
v  4 4 6
v  3 1 6
v  4 1 6
v  2 1 6
v  3 0 6
v  2 0 6
v  4 -10 6
v  4 0 6
v  4 1 8
v  4 0 8
v  4 1 5
v  4 0 5
v  4 4 5
v  4 -10 5
v  3 1 8
v  2 1 8
v  5 4 4
v  5 4 5
v  4 4 4
v  1 4 4
v  0 4 5
v  0 4 4
v  0 1 4
v  0 1 5
v  1 1 4
v  4 1 4
v  5 1 5
v  5 1 4
v  1 7 5
v  1 10 6
v  1 10 5
v  1 7 6
v  4 7 6
v  4 10 6
v  4 10 5
v  4 7 5
v  0 7 4
v  0 7 5
v  1 7 4
v  4 7 4
v  5 7 5
v  5 7 4
v  5 10 4
v  5 10 5
v  4 10 4
v  1 10 4
v  0 10 5
v  0 10 4
v  1 13 5
v  1 16 6
v  1 16 5
v  1 13 6
v  4 13 6
v  4 16 6
v  4 16 5
v  4 13 5
v  0 13 4
v  0 13 5
v  1 13 4
v  4 13 4
v  5 13 5
v  5 13 4
v  5 16 4
v  5 16 5
v  4 16 4
v  1 16 4
v  0 16 5
v  0 16 4
v  1 19 5
v  1 22 6
v  1 22 5
v  1 19 6
v  4 19 6
v  4 22 6
v  4 22 5
v  4 19 5
v  5 22 4
v  5 22 5
v  4 22 4
v  1 22 4
v  0 22 5
v  0 22 4
v  0 19 4
v  0 19 5
v  1 19 4
v  4 19 4
v  5 19 5
v  5 19 4
v  1 25 5
v  1 28 6
v  1 28 5
v  1 25 6
v  4 25 6
v  4 28 6
v  4 28 5
v  4 25 5
v  0 25 4
v  0 25 5
v  1 25 4
v  4 25 4
v  5 25 5
v  5 25 4
v  5 28 4
v  5 28 5
v  4 28 4
v  1 28 4
v  0 28 5
v  0 28 4
v  3 0 8
v  2 0 -1
v  1 0 0
v  2 0 0
v  1 0 -1
v  0 0 5
v  0 0 0
v  3 0 0
v  4 0 -1
v  4 0 0
v  3 0 -1
v  5 0 5
v  5 0 0
v  2 0 8
v  2 31 5
v  3 31 5
v  2 31 7
v  3 31 7
v  1 23 -6
v  1 24 0
v  1 24 -6
v  1 23 0
v  2 23 0
v  2 24 0
v  3 24 0
v  4 23 0
v  4 24 0
v  3 23 0
v  4 24 -6
v  4 23 -6
v  2 24 -6
v  2 23 -6
v  3 24 -6
v  3 25 -6
v  2 25 -6
v  3 23 -6
v  3 22 -6
v  2 22 -6
v  2 22 -1
v  2 13 -1
v  2 31 -1
v  2 31 0
v  2 25 -1
v  2 33 0
v  3 22 -1
v  3 13 -1
v  3 31 -1
v  3 25 -1
v  3 31 0
v  3 33 0
v  2 8 0
v  2 8 -1
v  3 8 0
v  3 8 -1
v  4 -10 -1
v  1 -10 -1
v  0 -10 0
v  0 -10 5
v  5 -10 5
v  5 -10 0
v  1 -10 0
v  4 -10 0
v  0 2 2
v  0 22 3
v  0 22 2
v  0 2 3
v  1 2 3
v  1 22 3
v  1 22 2
v  1 2 2

# 0 UV coordinates

# 6 vertex normals
vn -1 0 0
vn 0 0 1
vn 1 0 0
vn 0 0 -1
vn 0 1 0
vn 0 -1 0

# Mesh 'OpenSCAD_Model' with 448 faces
g OpenSCAD_Model
usemtl DefaultMaterial
f  1//1 2//1 3//1
f  2//1 1//1 4//1
f  2//2 5//2 6//2
f  5//2 2//2 4//2
f  5//3 7//3 6//3
f  7//3 5//3 8//3
f  9//2 10//2 11//2
f  10//2 9//2 12//2
f  13//4 14//4 11//4
f  14//4 13//4 15//4
f  13//4 8//4 15//4
f  1//4 8//4 13//4
f  1//4 13//4 16//4
f  8//4 1//4 7//4
f  7//4 1//4 3//4
f  16//4 17//4 1//4
f  18//4 16//4 9//4
f  17//4 16//4 18//4
f  19//5 20//5 21//5
f  20//5 19//5 22//5
f  5//5 23//5 22//5
f  23//5 5//5 4//5
f  15//5 5//5 24//5
f  5//5 15//5 8//5
f  23//5 25//5 26//5
f  25//5 23//5 27//5
f  1//5 28//5 4//5
f  28//5 1//5 17//5
f  7//5 2//5 6//5
f  2//5 7//5 3//5
f  2//5 29//5 30//5
f  29//5 2//5 31//5
f  32//5 33//5 30//5
f  33//5 32//5 34//5
f  35//5 33//5 36//5
f  33//5 35//5 6//5
f  23//1 32//1 30//1
f  32//1 23//1 26//1
f  34//2 32//2 20//2
f  26//2 20//2 32//2
f  20//2 37//2 21//2
f  20//2 26//2 37//2
f  38//2 26//2 25//2
f  26//2 38//2 37//2
f  20//3 33//3 34//3
f  33//3 20//3 22//3
f  23//4 33//4 22//4
f  33//4 23//4 30//4
f  18//1 28//1 17//1
f  28//1 18//1 38//1
f  39//1 38//1 18//1
f  28//1 38//1 27//1
f  28//1 29//1 31//1
f  29//1 28//1 27//1
f  27//1 38//1 25//1
f  38//1 39//1 40//1
f  29//2 23//2 30//2
f  23//2 29//2 27//2
f  23//3 2//3 30//3
f  2//3 23//3 4//3
f  28//4 2//4 4//4
f  2//4 28//4 31//4
f  5//1 33//1 6//1
f  33//1 5//1 22//1
f  33//2 19//2 36//2
f  19//2 33//2 22//2
f  41//3 42//3 37//3
f  14//3 37//3 42//3
f  37//3 19//3 21//3
f  19//3 37//3 24//3
f  14//3 24//3 37//3
f  24//3 14//3 15//3
f  35//3 19//3 24//3
f  19//3 35//3 36//3
f  5//4 35//4 24//4
f  35//4 5//4 6//4
f  9//6 43//6 39//6
f  43//6 9//6 44//6
f  9//6 39//6 18//6
f  11//6 44//6 9//6
f  43//6 45//6 46//6
f  45//6 43//6 44//6
f  44//6 11//6 42//6
f  42//6 11//6 14//6
f  47//1 48//1 49//1
f  48//1 47//1 50//1
f  48//1 51//1 52//1
f  48//1 52//1 49//1
f  51//1 48//1 53//1
f  53//1 48//1 54//1
f  52//1 51//1 55//1
f  52//1 55//1 56//1
f  57//2 58//2 59//2
f  57//2 60//2 58//2
f  55//2 60//2 57//2
f  58//2 60//2 61//2
f  60//2 55//2 51//2
f  62//2 61//2 60//2
f  61//2 63//2 64//2
f  61//2 62//2 63//2
f  50//2 62//2 48//2
f  62//2 50//2 63//2
f  64//3 59//3 65//3
f  64//3 65//3 66//3
f  59//3 64//3 67//3
f  64//3 68//3 67//3
f  63//3 68//3 64//3
f  59//3 69//3 57//3
f  69//3 59//3 67//3
f  68//3 63//3 70//3
f  52//4 67//4 68//4
f  52//4 68//4 49//4
f  67//4 52//4 69//4
f  69//4 52//4 56//4
f  59//5 71//5 65//5
f  71//5 59//5 58//5
f  60//5 53//5 72//5
f  53//5 60//5 51//5
f  69//5 55//5 57//5
f  55//5 69//5 56//5
f  73//5 69//5 74//5
f  69//5 73//5 75//5
f  76//5 77//5 56//5
f  77//5 76//5 78//5
f  79//1 77//1 78//1
f  77//1 79//1 80//1
f  77//2 52//2 56//2
f  52//2 77//2 80//2
f  52//3 76//3 56//3
f  76//3 52//3 81//3
f  79//4 76//4 81//4
f  76//4 79//4 78//4
f  79//6 52//6 80//6
f  52//6 79//6 81//6
f  82//1 69//1 75//1
f  69//1 82//1 67//1
f  69//2 83//2 74//2
f  83//2 69//2 67//2
f  83//3 73//3 74//3
f  73//3 83//3 84//3
f  82//4 73//4 84//4
f  73//4 82//4 75//4
f  82//6 83//6 67//6
f  83//6 82//6 84//6
f  85//1 86//1 87//1
f  86//1 85//1 88//1
f  86//2 89//2 90//2
f  89//2 86//2 88//2
f  89//3 91//3 90//3
f  91//3 89//3 92//3
f  85//4 91//4 92//4
f  91//4 85//4 87//4
f  85//6 89//6 88//6
f  89//6 85//6 92//6
f  93//6 85//6 94//6
f  85//6 93//6 95//6
f  96//6 97//6 92//6
f  97//6 96//6 98//6
f  91//5 86//5 90//5
f  86//5 91//5 87//5
f  99//5 91//5 100//5
f  91//5 99//5 101//5
f  102//5 103//5 87//5
f  103//5 102//5 104//5
f  93//1 103//1 104//1
f  103//1 93//1 94//1
f  103//2 85//2 87//2
f  85//2 103//2 94//2
f  85//3 102//3 87//3
f  102//3 85//3 95//3
f  93//4 102//4 95//4
f  102//4 93//4 104//4
f  96//1 91//1 101//1
f  91//1 96//1 92//1
f  91//2 97//2 100//2
f  97//2 91//2 92//2
f  97//3 99//3 100//3
f  99//3 97//3 98//3
f  96//4 99//4 98//4
f  99//4 96//4 101//4
f  105//1 106//1 107//1
f  106//1 105//1 108//1
f  106//2 109//2 110//2
f  109//2 106//2 108//2
f  109//3 111//3 110//3
f  111//3 109//3 112//3
f  105//4 111//4 112//4
f  111//4 105//4 107//4
f  105//6 109//6 108//6
f  109//6 105//6 112//6
f  113//6 105//6 114//6
f  105//6 113//6 115//6
f  116//6 117//6 112//6
f  117//6 116//6 118//6
f  111//5 106//5 110//5
f  106//5 111//5 107//5
f  119//5 111//5 120//5
f  111//5 119//5 121//5
f  122//5 123//5 107//5
f  123//5 122//5 124//5
f  113//1 123//1 124//1
f  123//1 113//1 114//1
f  123//2 105//2 107//2
f  105//2 123//2 114//2
f  105//3 122//3 107//3
f  122//3 105//3 115//3
f  113//4 122//4 115//4
f  122//4 113//4 124//4
f  116//1 111//1 121//1
f  111//1 116//1 112//1
f  111//2 117//2 120//2
f  117//2 111//2 112//2
f  117//3 119//3 120//3
f  119//3 117//3 118//3
f  116//4 119//4 118//4
f  119//4 116//4 121//4
f  125//1 126//1 127//1
f  126//1 125//1 128//1
f  126//2 129//2 130//2
f  129//2 126//2 128//2
f  129//3 131//3 130//3
f  131//3 129//3 132//3
f  131//5 126//5 130//5
f  126//5 131//5 127//5
f  133//5 131//5 134//5
f  131//5 133//5 135//5
f  136//5 137//5 127//5
f  137//5 136//5 138//5
f  125//4 131//4 132//4
f  131//4 125//4 127//4
f  125//6 129//6 128//6
f  129//6 125//6 132//6
f  139//6 125//6 140//6
f  125//6 139//6 141//6
f  142//6 143//6 132//6
f  143//6 142//6 144//6
f  139//1 137//1 138//1
f  137//1 139//1 140//1
f  137//2 125//2 127//2
f  125//2 137//2 140//2
f  125//3 136//3 127//3
f  136//3 125//3 141//3
f  139//4 136//4 141//4
f  136//4 139//4 138//4
f  142//1 131//1 135//1
f  131//1 142//1 132//1
f  131//2 143//2 134//2
f  143//2 131//2 132//2
f  143//3 133//3 134//3
f  133//3 143//3 144//3
f  142//4 133//4 144//4
f  133//4 142//4 135//4
f  145//1 146//1 147//1
f  146//1 145//1 148//1
f  146//2 149//2 150//2
f  149//2 146//2 148//2
f  149//3 151//3 150//3
f  151//3 149//3 152//3
f  145//4 151//4 152//4
f  151//4 145//4 147//4
f  145//6 149//6 148//6
f  149//6 145//6 152//6
f  153//6 145//6 154//6
f  145//6 153//6 155//6
f  156//6 157//6 152//6
f  157//6 156//6 158//6
f  151//5 146//5 150//5
f  146//5 151//5 147//5
f  159//5 151//5 160//5
f  151//5 159//5 161//5
f  162//5 163//5 147//5
f  163//5 162//5 164//5
f  153//1 163//1 164//1
f  163//1 153//1 154//1
f  163//2 145//2 147//2
f  145//2 163//2 154//2
f  145//3 162//3 147//3
f  162//3 145//3 155//3
f  153//4 162//4 155//4
f  162//4 153//4 164//4
f  156//1 151//1 161//1
f  151//1 156//1 152//1
f  151//2 157//2 160//2
f  157//2 151//2 152//2
f  157//3 159//3 160//3
f  159//3 157//3 158//3
f  156//4 159//4 158//4
f  159//4 156//4 161//4
f  61//6 66//6 165//6
f  66//6 61//6 64//6
f  166//5 167//5 168//5
f  167//5 166//5 169//5
f  167//5 49//5 168//5
f  49//5 167//5 170//5
f  170//5 167//5 171//5
f  168//5 49//5 172//5
f  68//5 172//5 49//5
f  173//5 172//5 174//5
f  172//5 173//5 175//5
f  68//5 174//5 172//5
f  174//5 68//5 176//5
f  174//5 176//5 177//5
f  48//6 178//6 54//6
f  178//6 48//6 62//6
f  53//2 178//2 72//2
f  178//2 53//2 54//2
f  178//3 60//3 72//3
f  60//3 178//3 62//3
f  61//1 71//1 58//1
f  71//1 61//1 165//1
f  71//2 66//2 65//2
f  66//2 71//2 165//2
f  40//2 43//2 179//2
f  43//2 40//2 39//2
f  180//2 42//2 41//2
f  42//2 180//2 44//2
f  37//5 180//5 41//5
f  180//5 37//5 179//5
f  38//5 179//5 37//5
f  180//5 181//5 182//5
f  181//5 180//5 179//5
f  179//5 38//5 40//5
f  43//1 181//1 179//1
f  181//1 43//1 46//1
f  181//2 45//2 182//2
f  45//2 181//2 46//2
f  45//3 180//3 182//3
f  180//3 45//3 44//3
f  183//1 184//1 185//1
f  184//1 183//1 186//1
f  184//2 187//2 188//2
f  187//2 184//2 186//2
f  189//2 190//2 191//2
f  190//2 189//2 192//2
f  190//3 193//3 191//3
f  193//3 190//3 194//3
f  183//4 195//4 196//4
f  195//4 183//4 185//4
f  195//4 197//4 196//4
f  197//4 195//4 198//4
f  198//4 195//4 199//4
f  196//4 200//4 201//4
f  200//4 196//4 197//4
f  196//4 201//4 202//4
f  193//4 200//4 197//4
f  200//4 193//4 194//4
f  183//6 187//6 186//6
f  187//6 183//6 196//6
f  200//6 190//6 192//6
f  190//6 200//6 194//6
f  193//5 189//5 191//5
f  189//5 193//5 197//5
f  195//5 184//5 188//5
f  184//5 195//5 185//5
f  203//1 196//1 202//1
f  196//1 203//1 187//1
f  12//1 203//1 204//1
f  203//1 12//1 187//1
f  187//1 9//1 188//1
f  187//1 12//1 9//1
f  205//1 9//1 206//1
f  207//1 9//1 205//1
f  188//1 9//1 207//1
f  16//1 206//1 9//1
f  188//1 207//1 195//1
f  199//1 195//1 207//1
f  206//1 16//1 208//1
f  204//4 209//4 210//4
f  209//4 204//4 203//4
f  207//4 211//4 212//4
f  211//4 207//4 205//4
f  13//3 213//3 214//3
f  11//3 213//3 13//3
f  11//3 211//3 213//3
f  11//3 212//3 211//3
f  11//3 189//3 212//3
f  11//3 192//3 189//3
f  10//3 192//3 11//3
f  197//3 212//3 189//3
f  212//3 197//3 198//3
f  192//3 209//3 200//3
f  10//3 209//3 192//3
f  209//3 10//3 210//3
f  200//3 209//3 201//3
f  198//5 207//5 212//5
f  207//5 198//5 199//5
f  202//6 209//6 203//6
f  209//6 202//6 201//6
f  214//5 16//5 13//5
f  16//5 214//5 208//5
f  206//4 214//4 213//4
f  214//4 206//4 208//4
f  204//6 10//6 12//6
f  10//6 204//6 210//6
f  211//5 206//5 213//5
f  206//5 211//5 205//5
f  166//1 215//1 216//1
f  215//1 166//1 168//1
f  215//2 172//2 217//2
f  172//2 215//2 168//2
f  172//3 218//3 217//3
f  218//3 172//3 175//3
f  219//4 175//4 173//4
f  219//4 166//4 175//4
f  220//4 166//4 219//4
f  175//4 166//4 218//4
f  166//4 220//4 169//4
f  218//4 166//4 216//4
f  218//5 215//5 217//5
f  215//5 218//5 216//5
f  221//1 170//1 171//1
f  170//1 221//1 222//1
f  170//2 47//2 49//2
f  47//2 170//2 222//2
f  68//2 223//2 176//2
f  223//2 68//2 70//2
f  223//3 177//3 176//3
f  177//3 223//3 224//3
f  221//4 167//4 225//4
f  167//4 221//4 171//4
f  226//4 177//4 224//4
f  177//4 226//4 174//4
f  220//6 226//6 225//6
f  226//6 220//6 219//6
f  226//6 70//6 225//6
f  70//6 226//6 223//6
f  223//6 226//6 224//6
f  225//6 47//6 222//6
f  47//6 225//6 70//6
f  225//6 222//6 221//6
f  63//6 47//6 70//6
f  47//6 63//6 50//6
f  220//1 167//1 169//1
f  167//1 220//1 225//1
f  226//3 173//3 174//3
f  173//3 226//3 219//3
f  227//1 228//1 229//1
f  228//1 227//1 230//1
f  228//2 231//2 232//2
f  231//2 228//2 230//2
f  231//3 233//3 232//3
f  233//3 231//3 234//3
f  227//4 233//4 234//4
f  233//4 227//4 229//4
f  227//6 231//6 230//6
f  231//6 227//6 234//6
f  233//5 228//5 232//5
f  228//5 233//5 229//5

