# File produced by Open Asset Import Library (http://www.assimp.sf.net)
# (assimp v3.1.187496374)

mtllib SMGBase.obj.mtl

# 100 vertex positions
v  1 -4 -9
v  1 -3 -5
v  1 -3 -9
v  1 -4 -5
v  1 -2 -1
v  1 -2 -5
v  1 -3 -1
v  1 -1 -1
v  1 -1 0
v  1 -2 1
v  1 0 1
v  1 7 0
v  1 7 1
v  2 -4 -5
v  2 -3 -5
v  3 -5 -5
v  3 -4 -5
v  2 -5 -5
v  4 -4 -5
v  3 -3 -5
v  4 -3 -5
v  2 -2 -5
v  3 -1 -5
v  3 -2 -5
v  2 -1 -5
v  4 -2 -5
v  4 -3 -9
v  4 -4 -9
v  4 -3 -1
v  4 -2 -1
v  4 -1 0
v  4 -2 1
v  4 -1 -1
v  4 0 1
v  4 7 0
v  4 7 1
v  2 -3 -9
v  3 -3 -9
v  2 -4 -9
v  3 -2 -9
v  2 -2 -9
v  3 -4 -9
v  3 -5 -9
v  2 -5 -9
v  3 -4 -1
v  2 -4 -1
v  2 -3 -1
v  2 -2 0
v  2 -2 -1
v  2 -3 0
v  2 -1 -2
v  2 -1 -1
v  2 0 -2
v  2 0 -1
v  2 1 0
v  2 1 -1
v  2 -1 0
v  3 -3 -1
v  3 -1 -2
v  3 -2 -1
v  3 -1 -1
v  3 0 -2
v  3 -3 0
v  3 -2 0
v  3 0 -1
v  3 -1 0
v  3 1 0
v  3 1 -1
v  1 2 2
v  1 22 3
v  1 22 2
v  1 2 3
v  1 0 4
v  1 25 5
v  1 25 4
v  1 0 5
v  1 10 0
v  1 25 1
v  1 25 0
v  1 10 1
v  4 0 5
v  4 25 4
v  4 25 5
v  4 0 4
v  4 10 1
v  4 25 0
v  4 25 1
v  4 10 0
v  0 0 4
v  0 0 1
v  5 0 4
v  5 0 1
v  0 25 1
v  5 25 1
v  0 25 4
v  5 25 4
v  0 22 2
v  0 2 2
v  0 22 3
v  0 2 3

# 0 UV coordinates

# 6 vertex normals
vn -1 0 0
vn 0 0 1
vn 0 0 -1
vn 1 0 0
vn 0 1 0
vn 0 -1 0

# Mesh 'OpenSCAD_Model' with 204 faces
g OpenSCAD_Model
usemtl DefaultMaterial
f  1//1 2//1 3//1
f  2//1 1//1 4//1
f  2//1 5//1 6//1
f  5//1 2//1 7//1
f  8//1 5//1 9//1
f  10//1 9//1 5//1
f  9//1 11//1 12//1
f  9//1 10//1 11//1
f  12//1 11//1 13//1
f  2//2 14//2 15//2
f  14//2 2//2 4//2
f  14//2 16//2 17//2
f  16//2 14//2 18//2
f  19//2 20//2 17//2
f  20//2 19//2 21//2
f  2//3 22//3 15//3
f  22//3 2//3 6//3
f  22//3 23//3 24//3
f  23//3 22//3 25//3
f  26//3 20//3 24//3
f  20//3 26//3 21//3
f  19//4 27//4 21//4
f  27//4 19//4 28//4
f  26//4 29//4 21//4
f  29//4 26//4 30//4
f  30//4 31//4 32//4
f  31//4 30//4 33//4
f  34//4 31//4 35//4
f  32//4 31//4 34//4
f  34//4 35//4 36//4
f  37//5 2//5 15//5
f  2//5 37//5 3//5
f  27//5 20//5 21//5
f  20//5 27//5 38//5
f  1//3 37//3 39//3
f  37//3 1//3 3//3
f  37//3 38//3 39//3
f  38//3 37//3 40//3
f  40//3 37//3 41//3
f  39//3 42//3 43//3
f  42//3 39//3 38//3
f  39//3 43//3 44//3
f  27//3 42//3 38//3
f  42//3 27//3 28//3
f  42//6 19//6 17//6
f  19//6 42//6 28//6
f  45//6 14//6 17//6
f  14//6 45//6 46//6
f  1//6 14//6 4//6
f  14//6 1//6 39//6
f  44//1 14//1 39//1
f  14//1 44//1 18//1
f  14//1 47//1 15//1
f  47//1 14//1 46//1
f  47//1 48//1 49//1
f  48//1 47//1 50//1
f  49//1 51//1 22//1
f  51//1 49//1 52//1
f  53//1 51//1 54//1
f  52//1 54//1 51//1
f  22//1 51//1 25//1
f  37//1 22//1 41//1
f  22//1 37//1 15//1
f  54//1 55//1 56//1
f  57//1 54//1 52//1
f  54//1 57//1 55//1
f  16//4 42//4 17//4
f  42//4 16//4 43//4
f  20//4 45//4 17//4
f  20//4 40//4 24//4
f  40//4 20//4 38//4
f  45//4 20//4 58//4
f  24//4 59//4 60//4
f  59//4 24//4 23//4
f  61//4 59//4 62//4
f  60//4 59//4 61//4
f  63//4 60//4 64//4
f  60//4 63//4 58//4
f  61//4 65//4 66//4
f  65//4 61//4 62//4
f  67//4 65//4 68//4
f  66//4 65//4 67//4
f  44//6 16//6 18//6
f  16//6 44//6 43//6
f  40//5 22//5 24//5
f  22//5 40//5 41//5
f  22//5 5//5 49//5
f  5//5 22//5 6//5
f  60//5 26//5 24//5
f  26//5 60//5 30//5
f  5//3 52//3 49//3
f  52//3 5//3 8//3
f  5//2 47//2 49//2
f  47//2 5//2 7//2
f  47//2 45//2 58//2
f  45//2 47//2 46//2
f  29//2 60//2 58//2
f  60//2 29//2 30//2
f  60//3 33//3 30//3
f  33//3 60//3 61//3
f  54//3 68//3 65//3
f  68//3 54//3 56//3
f  2//6 47//6 7//6
f  47//6 2//6 15//6
f  47//6 63//6 50//6
f  63//6 47//6 58//6
f  20//6 29//6 58//6
f  29//6 20//6 21//6
f  23//5 51//5 59//5
f  51//5 23//5 25//5
f  57//3 9//3 55//3
f  12//3 55//3 9//3
f  55//3 35//3 67//3
f  55//3 12//3 35//3
f  31//3 67//3 35//3
f  67//3 31//3 66//3
f  48//2 63//2 64//2
f  63//2 48//2 50//2
f  68//5 55//5 67//5
f  55//5 68//5 56//5
f  69//1 70//1 71//1
f  70//1 69//1 72//1
f  73//1 74//1 75//1
f  74//1 73//1 76//1
f  77//1 78//1 79//1
f  78//1 77//1 80//1
f  81//4 82//4 83//4
f  82//4 81//4 84//4
f  85//4 86//4 87//4
f  86//4 85//4 88//4
f  33//5 66//5 31//5
f  66//5 33//5 61//5
f  52//5 9//5 57//5
f  9//5 52//5 8//5
f  10//6 48//6 32//6
f  5//6 48//6 10//6
f  48//6 5//6 49//6
f  64//6 32//6 48//6
f  64//6 30//6 32//6
f  30//6 64//6 60//6
f  11//2 32//2 34//2
f  32//2 11//2 10//2
f  51//3 62//3 59//3
f  62//3 51//3 53//3
f  11//6 73//6 89//6
f  73//6 11//6 84//6
f  11//6 89//6 90//6
f  34//6 84//6 11//6
f  73//6 81//6 76//6
f  81//6 73//6 84//6
f  84//6 34//6 91//6
f  91//6 34//6 92//6
f  62//5 54//5 65//5
f  54//5 62//5 53//5
f  74//2 81//2 83//2
f  81//2 74//2 76//2
f  35//5 13//5 36//5
f  13//5 35//5 12//5
f  90//3 13//3 11//3
f  13//3 90//3 80//3
f  93//3 80//3 90//3
f  13//3 85//3 36//3
f  85//3 13//3 80//3
f  80//3 93//3 78//3
f  85//3 92//3 36//3
f  92//3 85//3 94//3
f  94//3 85//3 87//3
f  36//3 92//3 34//3
f  86//5 78//5 87//5
f  78//5 86//5 79//5
f  78//5 75//5 87//5
f  75//5 78//5 95//5
f  95//5 78//5 93//5
f  87//5 82//5 96//5
f  82//5 87//5 75//5
f  87//5 96//5 94//5
f  74//5 82//5 75//5
f  82//5 74//5 83//5
f  77//3 86//3 88//3
f  86//3 77//3 79//3
f  77//6 85//6 80//6
f  85//6 77//6 88//6
f  93//1 97//1 95//1
f  90//1 97//1 93//1
f  97//1 90//1 98//1
f  99//1 95//1 97//1
f  99//1 89//1 95//1
f  89//1 99//1 100//1
f  89//1 100//1 90//1
f  98//1 90//1 100//1
f  97//2 69//2 71//2
f  69//2 97//2 98//2
f  95//2 73//2 75//2
f  73//2 95//2 89//2
f  100//3 70//3 72//3
f  70//3 100//3 99//3
f  97//6 70//6 99//6
f  70//6 97//6 71//6
f  69//5 100//5 72//5
f  100//5 69//5 98//5
f  82//2 91//2 96//2
f  91//2 82//2 84//2
f  91//4 94//4 96//4
f  94//4 91//4 92//4

