# File produced by Open Asset Import Library (http://www.assimp.sf.net)
# (assimp v3.1.187496374)

mtllib SMGDetail.obj.mtl

# 276 vertex positions
v  2 28 1
v  2 29 2
v  2 29 1
v  2 28 2
v  3 28 2
v  3 29 2
v  3 29 1
v  3 28 1
v  1 29 3
v  2 29 3
v  1 29 2
v  2 29 4
v  3 29 3
v  3 29 4
v  4 29 2
v  4 29 3
v  4 25 1
v  4 28 1
v  1 25 1
v  1 28 1
v  4 28 3
v  3 28 4
v  4 28 4
v  3 28 3
v  2 28 3
v  4 28 2
v  1 28 4
v  2 28 4
v  1 28 3
v  1 28 2
v  4 25 4
v  1 25 4
v  1 1 5
v  1 4 6
v  1 4 5
v  1 1 6
v  4 1 6
v  4 4 6
v  4 4 5
v  4 1 5
v  0 1 4
v  0 1 5
v  1 1 4
v  4 1 4
v  5 1 5
v  5 1 4
v  5 4 4
v  5 4 5
v  4 4 4
v  1 4 4
v  0 4 5
v  0 4 4
v  1 7 5
v  1 10 6
v  1 10 5
v  1 7 6
v  4 7 6
v  4 10 6
v  4 10 5
v  4 7 5
v  5 10 4
v  5 10 5
v  4 10 4
v  1 10 4
v  0 10 5
v  0 10 4
v  0 7 4
v  0 7 5
v  1 7 4
v  4 7 4
v  5 7 5
v  5 7 4
v  1 13 5
v  1 16 6
v  1 16 5
v  1 13 6
v  4 13 6
v  4 16 6
v  4 16 5
v  4 13 5
v  5 16 4
v  5 16 5
v  4 16 4
v  1 16 4
v  0 16 5
v  0 16 4
v  6 16 1
v  6 16 4
v  5 16 1
v  0 13 4
v  0 13 5
v  1 13 4
v  4 13 4
v  5 13 5
v  5 13 4
v  5 13 1
v  6 13 4
v  6 13 1
v  5 15 4
v  5 14 4
v  1 19 5
v  1 22 6
v  1 22 5
v  1 19 6
v  4 19 6
v  4 22 6
v  4 22 5
v  4 19 5
v  5 22 4
v  5 22 5
v  4 22 4
v  1 22 4
v  0 22 5
v  0 22 4
v  6 22 1
v  6 22 4
v  5 22 1
v  0 19 4
v  0 19 5
v  1 19 4
v  4 19 4
v  5 19 5
v  5 19 4
v  5 19 1
v  6 19 4
v  6 19 1
v  5 21 4
v  5 20 4
v  5 20 1
v  6 20 4
v  6 20 1
v  5 21 1
v  6 21 4
v  6 21 1
v  5 17 1
v  5 18 4
v  5 18 1
v  5 17 4
v  6 17 4
v  6 18 4
v  6 18 1
v  6 17 1
v  5 15 1
v  6 15 4
v  6 15 1
v  5 14 1
v  6 14 4
v  6 14 1
v  1 -11 0
v  1 -10 2
v  1 -10 -2
v  1 -10 3
v  1 -11 -2
v  1 -11 5
v  1 -12 0
v  1 0 3
v  1 0 2
v  1 -10 7
v  1 -11 7
v  1 -12 5
v  1 -12 8
v  1 -11 8
v  1 -12 -3
v  1 -11 -3
v  4 -11 7
v  4 -10 7
v  4 -11 5
v  4 -10 3
v  4 -10 2
v  4 -11 0
v  4 -12 5
v  4 0 2
v  4 0 3
v  4 -10 -2
v  4 -11 -2
v  4 -12 0
v  4 -12 -3
v  4 -11 -3
v  4 -12 8
v  4 -11 8
v  3 -10 4
v  3 -10 3
v  2 -10 4
v  2 -10 3
v  3 -10 1
v  3 -10 2
v  2 -10 1
v  2 -10 2
v  2 0 3
v  3 0 3
v  2 0 2
v  3 0 2
v  3 0 1
v  2 0 1
v  2 0 4
v  3 0 4
v  2 15 -1
v  3 16 -1
v  3 15 -1
v  2 16 -1
v  2 22 -1
v  3 23 -1
v  3 22 -1
v  2 23 -1
v  3 19 -1
v  4 17 -1
v  4 19 -1
v  3 17 -1
v  1 22 -1
v  2 20 -1
v  1 20 -1
v  1 19 -1
v  2 17 -1
v  2 19 -1
v  1 17 -1
v  4 20 -1
v  4 22 -1
v  3 20 -1
v  4 17 8.88178e-16
v  4 16 8.88178e-16
v  4 16 -2
v  4 22 -2
v  4 19 8.88178e-16
v  4 23 -3
v  4 22 -3
v  4 20 8.88178e-16
v  4 23 8.88178e-16
v  4 22 8.88178e-16
v  3 16 -2
v  3 22 -2
v  1 16 -2
v  2 22 -2
v  2 16 -2
v  1 22 -2
v  2 23 -2
v  3 23 -2
v  2 22 4.44089e-16
v  1 22 2.22045e-16
v  1 22 -3
v  2 22 -3
v  3 22 6.66134e-16
v  3 22 -3
v  1 23 -3
v  1 23 2.22045e-16
v  1 20 2.22045e-16
v  1 19 2.22045e-16
v  1 16 2.22045e-16
v  1 17 2.22045e-16
v  2 17 4.44089e-16
v  3 17 6.66134e-16
v  2 16 4.44089e-16
v  3 16 6.66134e-16
v  3 15 6.66134e-16
v  2 15 4.44089e-16
v  2 19 4.44089e-16
v  3 19 6.66134e-16
v  2 20 4.44089e-16
v  3 20 6.66134e-16
v  3 16 -3
v  2 16 -3
v  0 2 2
v  0 20 3
v  0 20 2
v  0 2 3
v  0 21 2
v  0 22 3
v  0 22 2
v  0 21 3
v  -2 21 3
v  -2 20 3
v  1 22 3
v  1 2 3
v  1 22 2
v  1 2 2
v  -2 20 2
v  -2 21 2

# 0 UV coordinates

# 7 vertex normals
vn -1 0 0
vn 0 0 1
vn 1 0 0
vn 0 1 0
vn 0 0 -1
vn 0 -1 0
vn -2.22045e-16 0 1

# Mesh 'OpenSCAD_Model' with 532 faces
g OpenSCAD_Model
usemtl DefaultMaterial
f  1//1 2//1 3//1
f  2//1 1//1 4//1
f  2//2 5//2 6//2
f  5//2 2//2 4//2
f  5//3 7//3 6//3
f  7//3 5//3 8//3
f  7//4 2//4 6//4
f  2//4 7//4 3//4
f  2//4 9//4 10//4
f  9//4 2//4 11//4
f  12//4 13//4 10//4
f  13//4 12//4 14//4
f  15//4 13//4 16//4
f  13//4 15//4 6//4
f  17//5 8//5 18//5
f  17//5 1//5 8//5
f  19//5 1//5 17//5
f  8//5 1//5 7//5
f  1//5 19//5 20//5
f  7//5 1//5 3//5
f  21//4 22//4 23//4
f  22//4 21//4 24//4
f  5//4 25//4 24//4
f  25//4 5//4 4//4
f  18//4 5//4 26//4
f  5//4 18//4 8//4
f  25//4 27//4 28//4
f  27//4 25//4 29//4
f  1//4 30//4 4//4
f  30//4 1//4 20//4
f  25//1 12//1 10//1
f  12//1 25//1 28//1
f  14//2 12//2 22//2
f  28//2 22//2 12//2
f  22//2 31//2 23//2
f  22//2 28//2 31//2
f  32//2 28//2 27//2
f  28//2 32//2 31//2
f  22//3 13//3 14//3
f  13//3 22//3 24//3
f  25//5 13//5 24//5
f  13//5 25//5 10//5
f  19//1 30//1 20//1
f  30//1 19//1 29//1
f  32//1 29//1 19//1
f  30//1 9//1 11//1
f  9//1 30//1 29//1
f  29//1 32//1 27//1
f  9//2 25//2 10//2
f  25//2 9//2 29//2
f  25//3 2//3 10//3
f  2//3 25//3 4//3
f  30//5 2//5 4//5
f  2//5 30//5 11//5
f  5//1 13//1 6//1
f  13//1 5//1 24//1
f  13//2 21//2 16//2
f  21//2 13//2 24//2
f  31//3 21//3 23//3
f  21//3 31//3 26//3
f  17//3 26//3 31//3
f  21//3 15//3 16//3
f  15//3 21//3 26//3
f  26//3 17//3 18//3
f  5//5 15//5 26//5
f  15//5 5//5 6//5
f  19//6 31//6 32//6
f  31//6 19//6 17//6
f  33//1 34//1 35//1
f  34//1 33//1 36//1
f  34//2 37//2 38//2
f  37//2 34//2 36//2
f  37//3 39//3 38//3
f  39//3 37//3 40//3
f  33//5 39//5 40//5
f  39//5 33//5 35//5
f  33//6 37//6 36//6
f  37//6 33//6 40//6
f  41//6 33//6 42//6
f  33//6 41//6 43//6
f  44//6 45//6 40//6
f  45//6 44//6 46//6
f  39//4 34//4 38//4
f  34//4 39//4 35//4
f  47//4 39//4 48//4
f  39//4 47//4 49//4
f  50//4 51//4 35//4
f  51//4 50//4 52//4
f  41//1 51//1 52//1
f  51//1 41//1 42//1
f  51//2 33//2 35//2
f  33//2 51//2 42//2
f  33//3 50//3 35//3
f  50//3 33//3 43//3
f  41//5 50//5 43//5
f  50//5 41//5 52//5
f  44//1 39//1 49//1
f  39//1 44//1 40//1
f  39//2 45//2 48//2
f  45//2 39//2 40//2
f  45//3 47//3 48//3
f  47//3 45//3 46//3
f  44//5 47//5 46//5
f  47//5 44//5 49//5
f  53//1 54//1 55//1
f  54//1 53//1 56//1
f  54//2 57//2 58//2
f  57//2 54//2 56//2
f  57//3 59//3 58//3
f  59//3 57//3 60//3
f  59//4 54//4 58//4
f  54//4 59//4 55//4
f  61//4 59//4 62//4
f  59//4 61//4 63//4
f  64//4 65//4 55//4
f  65//4 64//4 66//4
f  53//5 59//5 60//5
f  59//5 53//5 55//5
f  53//6 57//6 56//6
f  57//6 53//6 60//6
f  67//6 53//6 68//6
f  53//6 67//6 69//6
f  70//6 71//6 60//6
f  71//6 70//6 72//6
f  67//1 65//1 66//1
f  65//1 67//1 68//1
f  65//2 53//2 55//2
f  53//2 65//2 68//2
f  53//3 64//3 55//3
f  64//3 53//3 69//3
f  67//5 64//5 69//5
f  64//5 67//5 66//5
f  70//1 59//1 63//1
f  59//1 70//1 60//1
f  59//2 71//2 62//2
f  71//2 59//2 60//2
f  71//3 61//3 62//3
f  61//3 71//3 72//3
f  70//5 61//5 72//5
f  61//5 70//5 63//5
f  73//1 74//1 75//1
f  74//1 73//1 76//1
f  74//2 77//2 78//2
f  77//2 74//2 76//2
f  77//3 79//3 78//3
f  79//3 77//3 80//3
f  79//4 74//4 78//4
f  74//4 79//4 75//4
f  81//4 79//4 82//4
f  79//4 81//4 83//4
f  84//4 85//4 75//4
f  85//4 84//4 86//4
f  87//4 81//4 88//4
f  81//4 87//4 89//4
f  73//5 79//5 80//5
f  79//5 73//5 75//5
f  73//6 77//6 76//6
f  77//6 73//6 80//6
f  90//6 73//6 91//6
f  73//6 90//6 92//6
f  93//6 94//6 80//6
f  94//6 93//6 95//6
f  96//6 97//6 95//6
f  97//6 96//6 98//6
f  90//1 85//1 86//1
f  85//1 90//1 91//1
f  85//2 73//2 75//2
f  73//2 85//2 91//2
f  73//3 84//3 75//3
f  84//3 73//3 92//3
f  90//5 84//5 92//5
f  84//5 90//5 86//5
f  93//1 79//1 83//1
f  79//1 93//1 80//1
f  79//2 94//2 82//2
f  94//2 79//2 80//2
f  82//3 99//3 81//3
f  82//3 100//3 99//3
f  94//3 100//3 82//3
f  100//3 94//3 95//3
f  93//5 100//5 95//5
f  100//5 93//5 99//5
f  83//5 99//5 93//5
f  99//5 83//5 81//5
f  101//1 102//1 103//1
f  102//1 101//1 104//1
f  102//2 105//2 106//2
f  105//2 102//2 104//2
f  105//3 107//3 106//3
f  107//3 105//3 108//3
f  107//4 102//4 106//4
f  102//4 107//4 103//4
f  109//4 107//4 110//4
f  107//4 109//4 111//4
f  112//4 113//4 103//4
f  113//4 112//4 114//4
f  115//4 109//4 116//4
f  109//4 115//4 117//4
f  101//5 107//5 108//5
f  107//5 101//5 103//5
f  101//6 105//6 104//6
f  105//6 101//6 108//6
f  118//6 101//6 119//6
f  101//6 118//6 120//6
f  121//6 122//6 108//6
f  122//6 121//6 123//6
f  124//6 125//6 123//6
f  125//6 124//6 126//6
f  118//1 113//1 114//1
f  113//1 118//1 119//1
f  113//2 101//2 103//2
f  101//2 113//2 119//2
f  101//3 112//3 103//3
f  112//3 101//3 120//3
f  118//5 112//5 120//5
f  112//5 118//5 114//5
f  121//1 107//1 111//1
f  107//1 121//1 108//1
f  107//2 122//2 110//2
f  122//2 107//2 108//2
f  110//3 127//3 109//3
f  110//3 128//3 127//3
f  122//3 128//3 110//3
f  128//3 122//3 123//3
f  121//5 128//5 123//5
f  128//5 121//5 127//5
f  111//5 127//5 121//5
f  127//5 111//5 109//5
f  124//1 128//1 129//1
f  128//1 124//1 123//1
f  128//2 125//2 130//2
f  125//2 128//2 123//2
f  125//3 131//3 130//3
f  131//3 125//3 126//3
f  124//5 131//5 126//5
f  131//5 124//5 129//5
f  131//4 128//4 130//4
f  128//4 131//4 129//4
f  132//1 109//1 117//1
f  109//1 132//1 127//1
f  109//2 133//2 116//2
f  133//2 109//2 127//2
f  133//3 115//3 116//3
f  115//3 133//3 134//3
f  132//5 115//5 134//5
f  115//5 132//5 117//5
f  132//6 133//6 127//6
f  133//6 132//6 134//6
f  135//1 136//1 137//1
f  136//1 135//1 138//1
f  136//2 139//2 140//2
f  139//2 136//2 138//2
f  139//3 141//3 140//3
f  141//3 139//3 142//3
f  141//4 136//4 140//4
f  136//4 141//4 137//4
f  135//5 141//5 142//5
f  141//5 135//5 137//5
f  135//6 139//6 138//6
f  139//6 135//6 142//6
f  143//1 81//1 89//1
f  81//1 143//1 99//1
f  81//2 144//2 88//2
f  144//2 81//2 99//2
f  144//3 87//3 88//3
f  87//3 144//3 145//3
f  143//5 87//5 145//5
f  87//5 143//5 89//5
f  143//6 144//6 99//6
f  144//6 143//6 145//6
f  96//1 100//1 146//1
f  100//1 96//1 95//1
f  100//2 97//2 147//2
f  97//2 100//2 95//2
f  97//3 148//3 147//3
f  148//3 97//3 98//3
f  148//4 100//4 147//4
f  100//4 148//4 146//4
f  96//5 148//5 98//5
f  148//5 96//5 146//5
f  149//1 150//1 151//1
f  150//1 149//1 152//1
f  149//1 151//1 153//1
f  154//1 152//1 149//1
f  153//1 155//1 149//1
f  150//1 156//1 157//1
f  156//1 150//1 152//1
f  152//1 154//1 158//1
f  154//1 159//1 158//1
f  160//1 159//1 154//1
f  161//1 159//1 160//1
f  159//1 161//1 162//1
f  155//1 153//1 163//1
f  163//1 153//1 164//1
f  158//2 165//2 166//2
f  165//2 158//2 159//2
f  167//3 168//3 166//3
f  168//3 167//3 169//3
f  167//3 166//3 165//3
f  170//3 169//3 167//3
f  165//3 171//3 167//3
f  168//3 172//3 173//3
f  172//3 168//3 169//3
f  169//3 170//3 174//3
f  170//3 175//3 174//3
f  176//3 175//3 170//3
f  177//3 175//3 176//3
f  175//3 177//3 178//3
f  171//3 165//3 179//3
f  179//3 165//3 180//3
f  166//4 181//4 158//4
f  168//4 181//4 166//4
f  181//4 168//4 182//4
f  183//4 158//4 181//4
f  183//4 152//4 158//4
f  152//4 183//4 184//4
f  169//4 185//4 186//4
f  174//4 185//4 169//4
f  185//4 174//4 187//4
f  151//4 187//4 174//4
f  187//4 150//4 188//4
f  187//4 151//4 150//4
f  153//5 174//5 175//5
f  174//5 153//5 151//5
f  149//6 167//6 154//6
f  167//6 149//6 170//6
f  178//4 153//4 175//4
f  153//4 178//4 164//4
f  165//4 162//4 180//4
f  162//4 165//4 159//4
f  162//2 179//2 180//2
f  179//2 162//2 161//2
f  160//5 167//5 171//5
f  167//5 160//5 154//5
f  160//6 179//6 161//6
f  179//6 160//6 171//6
f  149//2 176//2 170//2
f  176//2 149//2 155//2
f  163//5 178//5 177//5
f  178//5 163//5 164//5
f  163//6 176//6 155//6
f  176//6 163//6 177//6
f  156//2 184//2 189//2
f  184//2 156//2 152//2
f  190//2 168//2 173//2
f  168//2 190//2 182//2
f  150//5 191//5 188//5
f  191//5 150//5 157//5
f  186//5 172//5 169//5
f  172//5 186//5 192//5
f  193//4 191//4 192//4
f  191//4 193//4 194//4
f  191//4 189//4 192//4
f  189//4 191//4 156//4
f  156//4 191//4 157//4
f  192//4 190//4 173//4
f  190//4 192//4 189//4
f  192//4 173//4 172//4
f  195//4 190//4 189//4
f  190//4 195//4 196//4
f  184//1 195//1 189//1
f  195//1 184//1 183//1
f  187//1 191//1 194//1
f  191//1 187//1 188//1
f  195//2 181//2 196//2
f  181//2 195//2 183//2
f  181//3 190//3 196//3
f  190//3 181//3 182//3
f  186//3 193//3 192//3
f  193//3 186//3 185//3
f  187//5 193//5 185//5
f  193//5 187//5 194//5
f  197//5 198//5 199//5
f  198//5 197//5 200//5
f  201//5 202//5 203//5
f  202//5 201//5 204//5
f  205//2 206//2 207//2
f  206//2 205//2 208//2
f  209//2 210//2 201//2
f  210//2 209//2 211//2
f  212//2 213//2 214//2
f  213//2 212//2 215//2
f  203//2 216//2 217//2
f  216//2 203//2 218//2
f  219//3 220//3 206//3
f  221//3 206//3 220//3
f  221//3 207//3 206//3
f  207//3 221//3 222//3
f  207//3 216//3 223//3
f  207//3 222//3 216//3
f  216//3 222//3 217//3
f  222//3 224//3 217//3
f  224//3 222//3 225//3
f  226//3 223//3 216//3
f  227//3 217//3 224//3
f  217//3 227//3 228//3
f  229//5 222//5 221//5
f  222//5 229//5 230//5
f  231//5 232//5 233//5
f  232//5 231//5 234//5
f  235//2 230//2 236//2
f  230//2 235//2 232//2
f  209//6 237//6 238//6
f  237//6 209//6 201//6
f  239//6 232//6 234//6
f  232//6 239//6 240//6
f  203//6 228//6 241//6
f  228//6 203//6 217//6
f  242//6 222//6 230//6
f  222//6 242//6 225//6
f  230//4 201//4 203//4
f  201//4 230//4 232//4
f  234//1 211//1 209//1
f  234//1 212//1 211//1
f  231//1 212//1 234//1
f  234//1 243//1 239//1
f  243//1 234//1 244//1
f  209//1 244//1 234//1
f  211//1 212//1 245//1
f  212//1 231//1 215//1
f  245//1 212//1 246//1
f  247//1 215//1 231//1
f  215//1 247//1 248//1
f  244//1 209//1 238//1
f  213//4 248//4 249//4
f  248//4 213//4 215//4
f  206//4 250//4 219//4
f  250//4 206//4 208//4
f  248//7 251//7 249//7
f  251//7 248//7 247//7
f  251//7 252//7 249//7
f  252//7 251//7 253//7
f  253//7 251//7 254//7
f  249//7 250//7 255//7
f  250//7 249//7 252//7
f  220//7 250//7 252//7
f  256//7 255//7 250//7
f  250//7 220//7 219//7
f  245//7 255//7 257//7
f  255//7 245//7 246//7
f  256//7 257//7 255//7
f  258//7 257//7 256//7
f  223//7 258//7 256//7
f  257//7 258//7 241//7
f  257//7 241//7 237//7
f  258//7 223//7 226//7
f  227//7 237//7 241//7
f  244//7 237//7 227//7
f  237//7 244//7 238//7
f  227//7 241//7 228//7
f  258//3 203//3 241//3
f  203//3 258//3 218//3
f  229//3 242//3 230//3
f  242//3 229//3 259//3
f  230//1 202//1 236//1
f  202//1 230//1 203//1
f  253//3 198//3 252//3
f  198//3 253//3 199//3
f  250//3 205//3 256//3
f  205//3 250//3 208//3
f  210//1 237//1 201//1
f  237//1 210//1 257//1
f  260//1 232//1 240//1
f  232//1 260//1 233//1
f  201//3 235//3 204//3
f  235//3 201//3 232//3
f  197//1 251//1 200//1
f  251//1 197//1 254//1
f  213//1 255//1 214//1
f  255//1 213//1 249//1
f  197//6 253//6 254//6
f  253//6 197//6 199//6
f  227//4 202//4 244//4
f  227//4 236//4 202//4
f  224//4 236//4 227//4
f  204//4 244//4 202//4
f  235//4 244//4 204//4
f  235//4 243//4 244//4
f  236//4 224//4 235//4
f  243//4 235//4 224//4
f  259//5 260//5 242//5
f  240//5 242//5 260//5
f  242//5 224//5 225//5
f  240//5 224//5 242//5
f  243//5 240//5 239//5
f  240//5 243//5 224//5
f  247//6 200//6 251//6
f  231//6 200//6 247//6
f  233//6 200//6 231//6
f  200//6 233//6 198//6
f  229//6 198//6 233//6
f  260//6 229//6 233//6
f  198//6 220//6 252//6
f  221//6 198//6 229//6
f  198//6 221//6 220//6
f  229//6 260//6 259//6
f  205//6 223//6 256//6
f  223//6 205//6 207//6
f  212//6 255//6 246//6
f  255//6 212//6 214//6
f  210//4 245//4 257//4
f  245//4 210//4 211//4
f  216//4 258//4 226//4
f  258//4 216//4 218//4
f  261//1 262//1 263//1
f  262//1 261//1 264//1
f  265//1 266//1 267//1
f  266//1 265//1 268//1
f  269//2 262//2 268//2
f  262//2 269//2 270//2
f  262//2 271//2 268//2
f  271//2 262//2 272//2
f  272//2 262//2 264//2
f  268//2 271//2 266//2
f  272//3 273//3 271//3
f  273//3 272//3 274//3
f  275//5 265//5 263//5
f  265//5 275//5 276//5
f  265//5 273//5 263//5
f  273//5 265//5 267//5
f  263//5 274//5 261//5
f  274//5 263//5 273//5
f  261//6 272//6 264//6
f  272//6 261//6 274//6
f  273//4 266//4 271//4
f  266//4 273//4 267//4
f  275//1 269//1 276//1
f  269//1 275//1 270//1
f  265//4 269//4 268//4
f  269//4 265//4 276//4
f  275//6 262//6 270//6
f  262//6 275//6 263//6

