# File produced by Open Asset Import Library (http://www.assimp.sf.net)
# (assimp v3.1.187496374)

mtllib SMGMag.obj.mtl

# 64 vertex positions
v  5 7 -10
v  5 10 -11
v  5 10 -10
v  5 7 -11
v  5 7 0
v  5 10 -1
v  5 10 0
v  5 7 -1
v  6 7 -1
v  6 10 -1
v  6 10 -2
v  6 7 -2
v  -3 10 -3
v  -2 7 -3
v  -2 10 -3
v  -3 7 -3
v  7 10 -3
v  8 7 -3
v  8 10 -3
v  7 7 -3
v  0 7 -11
v  0 7 -10
v  6 7 -9
v  6 7 -10
v  -1 7 -9
v  -1 7 -10
v  7 7 -8
v  7 7 -9
v  -2 7 -8
v  -2 7 -9
v  8 7 -8
v  -3 7 -8
v  7 7 -2
v  -1 7 -2
v  -2 7 -2
v  0 7 -1
v  -1 7 -1
v  4 7 0
v  1 7 0
v  0 7 0
v  4 7 1
v  1 7 1
v  0 10 -10
v  0 10 -11
v  -1 10 -9
v  -1 10 -10
v  6 10 -9
v  6 10 -10
v  -2 10 -8
v  -2 10 -9
v  7 10 -8
v  7 10 -9
v  -3 10 -8
v  8 10 -8
v  -1 10 -2
v  -2 10 -2
v  7 10 -2
v  0 10 -1
v  -1 10 -1
v  1 10 0
v  0 10 0
v  4 10 0
v  1 10 1
v  4 10 1

# 0 UV coordinates

# 6 vertex normals
vn 1 0 0
vn 0 0 1
vn 0 -1 0
vn 0 1 0
vn 0 0 -1
vn -1 0 0

# Mesh 'OpenSCAD_Model' with 124 faces
g OpenSCAD_Model
usemtl DefaultMaterial
f  1//1 2//1 3//1
f  2//1 1//1 4//1
f  5//1 6//1 7//1
f  6//1 5//1 8//1
f  6//2 9//2 10//2
f  9//2 6//2 8//2
f  9//1 11//1 10//1
f  11//1 9//1 12//1
f  13//2 14//2 15//2
f  14//2 13//2 16//2
f  17//2 18//2 19//2
f  18//2 17//2 20//2
f  21//3 1//3 22//3
f  1//3 21//3 4//3
f  1//3 23//3 22//3
f  23//3 1//3 24//3
f  22//3 25//3 26//3
f  25//3 22//3 23//3
f  23//3 27//3 25//3
f  27//3 23//3 28//3
f  25//3 29//3 30//3
f  29//3 25//3 27//3
f  27//3 20//3 29//3
f  20//3 27//3 18//3
f  18//3 27//3 31//3
f  29//3 14//3 16//3
f  14//3 29//3 20//3
f  29//3 16//3 32//3
f  20//3 12//3 14//3
f  12//3 20//3 33//3
f  14//3 34//3 35//3
f  34//3 14//3 12//3
f  12//3 8//3 34//3
f  8//3 12//3 9//3
f  34//3 36//3 37//3
f  36//3 34//3 8//3
f  8//3 38//3 36//3
f  38//3 8//3 5//3
f  36//3 39//3 40//3
f  39//3 36//3 38//3
f  41//3 39//3 38//3
f  39//3 41//3 42//3
f  2//4 43//4 3//4
f  43//4 2//4 44//4
f  43//4 45//4 3//4
f  45//4 43//4 46//4
f  3//4 47//4 48//4
f  47//4 3//4 45//4
f  45//4 49//4 47//4
f  49//4 45//4 50//4
f  47//4 51//4 52//4
f  51//4 47//4 49//4
f  49//4 15//4 51//4
f  15//4 49//4 13//4
f  13//4 49//4 53//4
f  51//4 17//4 19//4
f  17//4 51//4 15//4
f  51//4 19//4 54//4
f  15//4 55//4 17//4
f  55//4 15//4 56//4
f  17//4 11//4 57//4
f  11//4 17//4 55//4
f  55//4 58//4 11//4
f  58//4 55//4 59//4
f  11//4 6//4 10//4
f  6//4 11//4 58//4
f  58//4 60//4 6//4
f  60//4 58//4 61//4
f  6//4 62//4 7//4
f  62//4 6//4 60//4
f  63//4 62//4 60//4
f  62//4 63//4 64//4
f  11//2 33//2 57//2
f  33//2 11//2 12//2
f  33//1 17//1 57//1
f  17//1 33//1 20//1
f  32//5 49//5 29//5
f  49//5 32//5 53//5
f  27//5 54//5 31//5
f  54//5 27//5 51//5
f  23//1 48//1 47//1
f  48//1 23//1 24//1
f  1//5 48//5 24//5
f  48//5 1//5 3//5
f  27//1 52//1 51//1
f  52//1 27//1 28//1
f  23//5 52//5 28//5
f  52//5 23//5 47//5
f  26//6 45//6 46//6
f  45//6 26//6 25//6
f  36//6 61//6 58//6
f  61//6 36//6 40//6
f  21//6 43//6 44//6
f  43//6 21//6 22//6
f  26//5 43//5 22//5
f  43//5 26//5 46//5
f  30//6 49//6 50//6
f  49//6 30//6 29//6
f  30//5 45//5 25//5
f  45//5 30//5 50//5
f  34//6 59//6 55//6
f  59//6 34//6 37//6
f  59//2 36//2 58//2
f  36//2 59//2 37//2
f  14//6 56//6 15//6
f  56//6 14//6 35//6
f  56//2 34//2 55//2
f  34//2 56//2 35//2
f  32//6 13//6 53//6
f  13//6 32//6 16//6
f  18//1 54//1 19//1
f  54//1 18//1 31//1
f  61//2 39//2 60//2
f  39//2 61//2 40//2
f  62//2 5//2 7//2
f  5//2 62//2 38//2
f  21//5 2//5 4//5
f  2//5 21//5 44//5
f  39//6 63//6 60//6
f  63//6 39//6 42//6
f  63//2 41//2 64//2
f  41//2 63//2 42//2
f  41//1 62//1 64//1
f  62//1 41//1 38//1

