# File produced by Open Asset Import Library (http://www.assimp.sf.net)
# (assimp v3.1.187496374)

mtllib SRDetail.obj.mtl

# 164 vertex positions
v  1 30 -6
v  1 31 1
v  1 31 -6
v  1 30 1
v  2 39 1
v  3 50 1
v  3 39 1
v  2 50 1
v  2 30 1
v  3 15 1
v  3 30 1
v  2 15 1
v  2 31 1
v  4 30 1
v  3 31 1
v  4 31 1
v  4 31 -6
v  4 30 -6
v  3 31 -6
v  2 31 -6
v  2 30 -6
v  3 32 -6
v  2 32 -6
v  3 30 -6
v  3 29 -6
v  2 29 -6
v  3 30 2
v  2 30 2
v  5 30 3
v  3 30 3
v  5 30 2
v  3 30 4
v  2 30 3
v  2 30 4
v  0 30 2
v  0 30 3
v  2 29 -1
v  2 15 0
v  2 15 -1
v  2 35 0
v  2 50 2
v  2 32 -1
v  2 35 -1
v  2 39 0
v  2 10 -1
v  2 0 0
v  2 15 -4
v  2 10 -4
v  2 0 -1
v  3 29 -1
v  3 15 -1
v  3 35 -1
v  3 32 -1
v  3 15 0
v  3 10 -1
v  3 0 0
v  3 15 -4
v  3 0 -1
v  3 10 -4
v  3 35 0
v  3 50 2
v  3 39 0
v  4 -10 -1
v  4 0 -1
v  1 -10 -1
v  1 0 -1
v  3 0 6
v  4 0 8
v  3 0 8
v  4 0 6
v  1 0 0
v  0 0 2
v  0 0 0
v  5 0 2
v  0 0 3
v  4 0 0
v  5 0 3
v  5 0 0
v  1 0 5
v  0 0 5
v  4 0 5
v  5 0 5
v  1 0 6
v  2 0 8
v  1 0 8
v  2 0 6
v  -1 -1 2
v  -1 30 3
v  -1 30 2
v  -1 -1 3
v  0 -1 3
v  1 31 3
v  0 31 3
v  2 50 3
v  1 50 3
v  0 -1 2
v  0 -10 0
v  0 -10 5
v  1 31 2
v  0 31 2
v  1 50 2
v  5 -1 3
v  5 -10 5
v  5 -1 2
v  5 -10 0
v  6 30 3
v  6 -1 3
v  4 31 3
v  5 31 3
v  4 50 3
v  3 50 3
v  6 30 2
v  6 -1 2
v  4 31 2
v  5 31 2
v  4 50 2
v  2 50 4
v  3 50 4
v  2 44 4
v  2 42 4
v  2 43 5
v  2 44 6
v  2 42 5
v  2 43 6
v  3 44 4
v  3 42 4
v  3 43 5
v  3 44 6
v  3 43 6
v  3 42 5
v  1 -10 5
v  1 -10 6
v  1 1 5
v  1 1 8
v  2 1 6
v  3 1 6
v  3 29 6
v  2 29 6
v  4 29 6
v  3 30 6
v  4 30 6
v  4 -10 6
v  1 30 6
v  2 30 6
v  1 29 6
v  4 1 8
v  4 1 5
v  4 -10 5
v  3 1 8
v  3 1 5
v  2 1 8
v  2 1 5
v  3 29 5
v  2 29 5
v  4 30 5
v  4 29 5
v  1 30 5
v  1 29 5
v  2 30 7
v  2 29 7
v  3 29 7
v  3 30 7
v  1 -10 0
v  4 -10 0

# 0 UV coordinates

# 6 vertex normals
vn -1 0 0
vn 0 0 -1
vn 0 0 1
vn 1 0 0
vn 0 1 0
vn 0 -1 0

# Mesh 'OpenSCAD_Model' with 336 faces
g OpenSCAD_Model
usemtl DefaultMaterial
f  1//1 2//1 3//1
f  2//1 1//1 4//1
f  5//2 6//2 7//2
f  6//2 5//2 8//2
f  9//3 10//3 11//3
f  10//3 9//3 12//3
f  2//3 9//3 13//3
f  9//3 2//3 4//3
f  14//3 15//3 11//3
f  15//3 14//3 16//3
f  14//4 17//4 16//4
f  17//4 14//4 18//4
f  17//5 15//5 16//5
f  15//5 17//5 19//5
f  20//5 2//5 13//5
f  2//5 20//5 3//5
f  1//2 20//2 21//2
f  20//2 1//2 3//2
f  20//2 19//2 21//2
f  19//2 20//2 22//2
f  22//2 20//2 23//2
f  21//2 24//2 25//2
f  24//2 21//2 19//2
f  21//2 25//2 26//2
f  17//2 24//2 19//2
f  24//2 17//2 18//2
f  1//6 9//6 4//6
f  9//6 1//6 21//6
f  9//6 27//6 28//6
f  27//6 9//6 11//6
f  27//6 29//6 30//6
f  29//6 27//6 31//6
f  32//6 33//6 30//6
f  33//6 32//6 34//6
f  35//6 33//6 36//6
f  33//6 35//6 28//6
f  24//6 14//6 11//6
f  14//6 24//6 18//6
f  37//1 21//1 26//1
f  21//1 37//1 9//1
f  38//1 37//1 39//1
f  12//1 37//1 38//1
f  37//1 12//1 9//1
f  28//1 13//1 9//1
f  28//1 40//1 13//1
f  40//1 28//1 5//1
f  5//1 28//1 41//1
f  13//1 42//1 20//1
f  13//1 40//1 42//1
f  43//1 42//1 40//1
f  44//1 40//1 5//1
f  5//1 41//1 8//1
f  23//1 20//1 42//1
f  39//1 45//1 38//1
f  45//1 46//1 38//1
f  45//1 39//1 47//1
f  45//1 47//1 48//1
f  46//1 45//1 49//1
f  39//2 50//2 51//2
f  50//2 39//2 37//2
f  42//2 52//2 53//2
f  52//2 42//2 43//2
f  11//4 50//4 24//4
f  10//4 50//4 11//4
f  15//4 27//4 11//4
f  54//4 50//4 10//4
f  54//4 51//4 50//4
f  24//4 50//4 25//4
f  55//4 51//4 54//4
f  56//4 55//4 54//4
f  51//4 55//4 57//4
f  55//4 56//4 58//4
f  57//4 55//4 59//4
f  27//4 60//4 7//4
f  27//4 7//4 61//4
f  60//4 27//4 15//4
f  7//4 60//4 62//4
f  60//4 53//4 52//4
f  60//4 15//4 53//4
f  61//4 7//4 6//4
f  19//4 53//4 15//4
f  53//4 19//4 22//4
f  26//6 50//6 37//6
f  50//6 26//6 25//6
f  22//5 42//5 53//5
f  42//5 22//5 23//5
f  40//2 62//2 60//2
f  62//2 40//2 44//2
f  57//5 39//5 51//5
f  39//5 57//5 47//5
f  38//6 10//6 12//6
f  10//6 38//6 54//6
f  62//5 5//5 7//5
f  5//5 62//5 44//5
f  52//5 40//5 60//5
f  40//5 52//5 43//5
f  38//3 56//3 54//3
f  56//3 38//3 46//3
f  48//6 55//6 45//6
f  55//6 48//6 59//6
f  63//2 58//2 64//2
f  63//2 49//2 58//2
f  65//2 49//2 63//2
f  58//2 49//2 55//2
f  49//2 65//2 66//2
f  55//2 49//2 45//2
f  67//6 68//6 69//6
f  68//6 67//6 70//6
f  49//5 71//5 46//5
f  71//5 49//5 66//5
f  71//5 72//5 46//5
f  72//5 71//5 73//5
f  46//5 72//5 56//5
f  74//5 72//5 75//5
f  74//5 56//5 72//5
f  64//5 56//5 76//5
f  56//5 64//5 58//5
f  56//5 74//5 76//5
f  74//5 75//5 77//5
f  76//5 74//5 78//5
f  75//5 79//5 77//5
f  79//5 75//5 80//5
f  77//5 81//5 82//5
f  81//5 77//5 79//5
f  83//6 84//6 85//6
f  84//6 83//6 86//6
f  87//1 88//1 89//1
f  88//1 87//1 90//1
f  88//3 75//3 36//3
f  90//3 75//3 88//3
f  75//3 90//3 91//3
f  36//3 92//3 93//3
f  92//3 36//3 33//3
f  92//3 94//3 95//3
f  94//3 92//3 33//3
f  73//1 96//1 72//1
f  97//1 96//1 73//1
f  96//1 97//1 91//1
f  98//1 91//1 97//1
f  91//1 80//1 75//1
f  91//1 98//1 80//1
f  75//4 35//4 36//4
f  35//4 75//4 72//4
f  35//5 88//5 36//5
f  88//5 35//5 89//5
f  87//2 72//2 96//2
f  89//2 72//2 87//2
f  72//2 89//2 35//2
f  35//2 99//2 28//2
f  99//2 35//2 100//2
f  28//2 99//2 41//2
f  41//2 99//2 101//2
f  87//6 91//6 90//6
f  91//6 87//6 96//6
f  35//1 93//1 100//1
f  93//1 35//1 36//1
f  99//1 95//1 101//1
f  95//1 99//1 92//1
f  99//5 93//5 92//5
f  93//5 99//5 100//5
f  82//4 102//4 77//4
f  103//4 102//4 82//4
f  102//4 103//4 104//4
f  105//4 104//4 103//4
f  104//4 78//4 74//4
f  104//4 105//4 78//4
f  74//1 29//1 31//1
f  29//1 74//1 77//1
f  77//3 106//3 29//3
f  106//3 77//3 107//3
f  107//3 77//3 102//3
f  108//3 29//3 109//3
f  108//3 30//3 29//3
f  110//3 111//3 108//3
f  30//3 108//3 111//3
f  107//4 112//4 106//4
f  112//4 107//4 113//4
f  74//2 113//2 104//2
f  113//2 74//2 112//2
f  112//2 74//2 31//2
f  31//2 114//2 115//2
f  27//2 114//2 31//2
f  61//2 114//2 27//2
f  114//2 61//2 116//2
f  104//6 107//6 102//6
f  107//6 104//6 113//6
f  112//5 29//5 106//5
f  29//5 112//5 31//5
f  108//4 116//4 110//4
f  116//4 108//4 114//4
f  29//4 115//4 109//4
f  115//4 29//4 31//4
f  115//5 108//5 109//5
f  108//5 115//5 114//5
f  41//3 27//3 61//3
f  27//3 41//3 28//3
f  6//5 41//5 61//5
f  41//5 6//5 8//5
f  41//5 95//5 94//5
f  95//5 41//5 101//5
f  117//5 111//5 94//5
f  111//5 117//5 118//5
f  116//5 111//5 110//5
f  111//5 116//5 61//5
f  94//1 119//1 117//1
f  94//1 120//1 119//1
f  33//1 120//1 94//1
f  119//1 121//1 122//1
f  119//1 120//1 121//1
f  120//1 33//1 34//1
f  121//1 120//1 123//1
f  122//1 121//1 124//1
f  117//3 125//3 118//3
f  125//3 117//3 119//3
f  120//3 32//3 126//3
f  32//3 120//3 34//3
f  127//4 128//4 129//4
f  128//4 127//4 125//4
f  126//4 127//4 130//4
f  127//4 126//4 125//4
f  125//4 111//4 118//4
f  126//4 111//4 125//4
f  30//4 126//4 32//4
f  126//4 30//4 111//4
f  33//2 111//2 30//2
f  111//2 33//2 94//2
f  33//4 41//4 94//4
f  41//4 33//4 28//4
f  27//1 111//1 61//1
f  111//1 27//1 30//1
f  131//1 83//1 79//1
f  83//1 131//1 132//1
f  83//1 133//1 79//1
f  133//1 83//1 134//1
f  134//1 83//1 85//1
f  135//3 136//3 137//3
f  135//3 137//3 138//3
f  136//3 135//3 67//3
f  86//3 67//3 135//3
f  139//3 140//3 137//3
f  140//3 139//3 141//3
f  67//3 142//3 70//3
f  67//3 86//3 142//3
f  132//3 86//3 83//3
f  86//3 132//3 142//3
f  143//3 138//3 144//3
f  138//3 143//3 145//3
f  70//4 146//4 68//4
f  146//4 70//4 147//4
f  70//4 81//4 147//4
f  142//4 81//4 70//4
f  81//4 142//4 148//4
f  146//5 136//5 149//5
f  147//5 136//5 146//5
f  136//5 147//5 150//5
f  135//5 134//5 151//5
f  133//5 135//5 152//5
f  135//5 133//5 134//5
f  81//2 150//2 147//2
f  81//2 152//2 150//2
f  79//2 152//2 81//2
f  150//2 152//2 153//2
f  152//2 79//2 133//2
f  154//2 153//2 152//2
f  153//2 155//2 156//2
f  154//2 155//2 153//2
f  157//2 154//2 158//2
f  154//2 157//2 155//2
f  134//3 84//3 151//3
f  84//3 134//3 85//3
f  84//4 135//4 151//4
f  135//4 84//4 86//4
f  67//1 149//1 136//1
f  149//1 67//1 69//1
f  149//3 68//3 146//3
f  68//3 149//3 69//3
f  152//1 138//1 154//1
f  138//1 152//1 135//1
f  138//1 159//1 144//1
f  159//1 138//1 160//1
f  136//4 153//4 137//4
f  153//4 136//4 150//4
f  140//4 161//4 137//4
f  161//4 140//4 162//4
f  155//5 140//5 141//5
f  140//5 155//5 144//5
f  157//5 144//5 155//5
f  140//5 159//5 162//5
f  159//5 140//5 144//5
f  144//5 157//5 143//5
f  158//1 143//1 157//1
f  143//1 158//1 145//1
f  139//4 155//4 141//4
f  155//4 139//4 156//4
f  138//6 161//6 160//6
f  161//6 138//6 137//6
f  158//6 138//6 145//6
f  138//6 158//6 154//6
f  153//6 139//6 137//6
f  139//6 153//6 156//6
f  159//3 161//3 162//3
f  161//3 159//3 160//3
f  121//3 130//3 127//3
f  130//3 121//3 123//3
f  125//5 122//5 128//5
f  122//5 125//5 119//5
f  120//6 130//6 123//6
f  130//6 120//6 126//6
f  122//3 129//3 128//3
f  129//3 122//3 124//3
f  121//6 129//6 124//6
f  129//6 121//6 127//6
f  48//2 57//2 59//2
f  57//2 48//2 47//2
f  80//3 131//3 79//3
f  131//3 80//3 98//3
f  81//3 103//3 82//3
f  103//3 81//3 148//3
f  97//2 71//2 163//2
f  71//2 97//2 73//2
f  164//2 78//2 105//2
f  78//2 164//2 76//2
f  65//6 164//6 163//6
f  164//6 65//6 63//6
f  164//6 148//6 163//6
f  148//6 164//6 103//6
f  103//6 164//6 105//6
f  163//6 131//6 98//6
f  131//6 163//6 148//6
f  163//6 98//6 97//6
f  142//6 131//6 148//6
f  131//6 142//6 132//6
f  65//1 71//1 66//1
f  71//1 65//1 163//1
f  164//4 64//4 76//4
f  64//4 164//4 63//4

