# File produced by Open Asset Import Library (http://www.assimp.sf.net)
# (assimp v3.1.187496374)

mtllib PistolDetail.obj.mtl

# 36 vertex positions
v  2 -3 2
v  2 -4 2
v  2 -3 4
v  2 -4 5
v  2 0 5
v  2 0 4
v  3 -4 5
v  3 0 5
v  3 -3 4
v  3 0 4
v  3 -4 2
v  3 -3 2
v  2 10 4
v  2 12 5
v  2 12 4
v  2 10 5
v  3 10 5
v  3 12 5
v  3 12 4
v  3 10 4
v  2 5 0
v  2 9 1
v  2 9 0
v  2 5 1
v  3 5 1
v  3 9 1
v  3 9 0
v  3 5 0
v  2 12 2
v  2 13 3
v  2 13 2
v  2 12 3
v  3 12 3
v  3 13 3
v  3 13 2
v  3 12 2

# 0 UV coordinates

# 6 vertex normals
vn -1 0 0
vn 0 0 1
vn 1 0 0
vn 0 1 0
vn 0 0 -1
vn 0 -1 0

# Mesh 'OpenSCAD_Model' with 56 faces
g OpenSCAD_Model
usemtl DefaultMaterial
f  1//1 2//1 3//1
f  4//1 3//1 2//1
f  3//1 5//1 6//1
f  3//1 4//1 5//1
f  5//2 7//2 8//2
f  7//2 5//2 4//2
f  8//3 9//3 10//3
f  7//3 9//3 8//3
f  11//3 9//3 7//3
f  9//3 11//3 12//3
f  10//4 5//4 8//4
f  5//4 10//4 6//4
f  3//5 10//5 9//5
f  10//5 3//5 6//5
f  12//4 3//4 9//4
f  3//4 12//4 1//4
f  13//1 14//1 15//1
f  14//1 13//1 16//1
f  14//2 17//2 18//2
f  17//2 14//2 16//2
f  17//3 19//3 18//3
f  19//3 17//3 20//3
f  13//5 19//5 20//5
f  19//5 13//5 15//5
f  13//6 17//6 16//6
f  17//6 13//6 20//6
f  19//4 14//4 18//4
f  14//4 19//4 15//4
f  2//5 12//5 11//5
f  12//5 2//5 1//5
f  2//6 7//6 4//6
f  7//6 2//6 11//6
f  21//1 22//1 23//1
f  22//1 21//1 24//1
f  22//2 25//2 26//2
f  25//2 22//2 24//2
f  25//3 27//3 26//3
f  27//3 25//3 28//3
f  27//4 22//4 26//4
f  22//4 27//4 23//4
f  21//5 27//5 28//5
f  27//5 21//5 23//5
f  21//6 25//6 24//6
f  25//6 21//6 28//6
f  29//1 30//1 31//1
f  30//1 29//1 32//1
f  30//2 33//2 34//2
f  33//2 30//2 32//2
f  33//3 35//3 34//3
f  35//3 33//3 36//3
f  35//4 30//4 34//4
f  30//4 35//4 31//4
f  29//5 35//5 36//5
f  35//5 29//5 31//5
f  29//6 33//6 32//6
f  33//6 29//6 36//6

